# Wavefront OBJ: Flower-shaped Tinaco Rainwater Collector
# Parametric CDMX Rooftop Water Harvesting Retrofit
o TinacoFlowerCollector
v 225.0000 0.0000 0.0000
v 220.6767 43.8953 0.0000
v 207.8729 86.1038 0.0000
v 187.0807 125.0033 0.0000
v 159.0990 159.0990 0.0000
v 125.0033 187.0807 0.0000
v 86.1038 207.8729 0.0000
v 43.8953 220.6767 0.0000
v 0.0000 225.0000 0.0000
v -43.8953 220.6767 0.0000
v -86.1038 207.8729 0.0000
v -125.0033 187.0807 0.0000
v -159.0990 159.0990 0.0000
v -187.0807 125.0033 0.0000
v -207.8729 86.1038 0.0000
v -220.6767 43.8953 0.0000
v -225.0000 0.0000 0.0000
v -220.6767 -43.8953 0.0000
v -207.8729 -86.1038 0.0000
v -187.0807 -125.0033 0.0000
v -159.0990 -159.0990 0.0000
v -125.0033 -187.0807 0.0000
v -86.1038 -207.8729 0.0000
v -43.8953 -220.6767 0.0000
v -0.0000 -225.0000 0.0000
v 43.8953 -220.6767 0.0000
v 86.1038 -207.8729 0.0000
v 125.0033 -187.0807 0.0000
v 159.0990 -159.0990 0.0000
v 187.0807 -125.0033 0.0000
v 207.8729 -86.1038 0.0000
v 220.6767 -43.8953 0.0000
v 225.0000 0.0000 -45.0000
v 220.6767 43.8953 -45.0000
v 207.8729 86.1038 -45.0000
v 187.0807 125.0033 -45.0000
v 159.0990 159.0990 -45.0000
v 125.0033 187.0807 -45.0000
v 86.1038 207.8729 -45.0000
v 43.8953 220.6767 -45.0000
v 0.0000 225.0000 -45.0000
v -43.8953 220.6767 -45.0000
v -86.1038 207.8729 -45.0000
v -125.0033 187.0807 -45.0000
v -159.0990 159.0990 -45.0000
v -187.0807 125.0033 -45.0000
v -207.8729 86.1038 -45.0000
v -220.6767 43.8953 -45.0000
v -225.0000 0.0000 -45.0000
v -220.6767 -43.8953 -45.0000
v -207.8729 -86.1038 -45.0000
v -187.0807 -125.0033 -45.0000
v -159.0990 -159.0990 -45.0000
v -125.0033 -187.0807 -45.0000
v -86.1038 -207.8729 -45.0000
v -43.8953 -220.6767 -45.0000
v -0.0000 -225.0000 -45.0000
v 43.8953 -220.6767 -45.0000
v 86.1038 -207.8729 -45.0000
v 125.0033 -187.0807 -45.0000
v 159.0990 -159.0990 -45.0000
v 187.0807 -125.0033 -45.0000
v 207.8729 -86.1038 -45.0000
v 220.6767 -43.8953 -45.0000
v 60.0000 0.0000 -70.0000
v 58.8471 11.7054 -70.0000
v 55.4328 22.9610 -70.0000
v 49.8882 33.3342 -70.0000
v 42.4264 42.4264 -70.0000
v 33.3342 49.8882 -70.0000
v 22.9610 55.4328 -70.0000
v 11.7054 58.8471 -70.0000
v 0.0000 60.0000 -70.0000
v -11.7054 58.8471 -70.0000
v -22.9610 55.4328 -70.0000
v -33.3342 49.8882 -70.0000
v -42.4264 42.4264 -70.0000
v -49.8882 33.3342 -70.0000
v -55.4328 22.9610 -70.0000
v -58.8471 11.7054 -70.0000
v -60.0000 0.0000 -70.0000
v -58.8471 -11.7054 -70.0000
v -55.4328 -22.9610 -70.0000
v -49.8882 -33.3342 -70.0000
v -42.4264 -42.4264 -70.0000
v -33.3342 -49.8882 -70.0000
v -22.9610 -55.4328 -70.0000
v -11.7054 -58.8471 -70.0000
v -0.0000 -60.0000 -70.0000
v 11.7054 -58.8471 -70.0000
v 22.9610 -55.4328 -70.0000
v 33.3342 -49.8882 -70.0000
v 42.4264 -42.4264 -70.0000
v 49.8882 -33.3342 -70.0000
v 55.4328 -22.9610 -70.0000
v 58.8471 -11.7054 -70.0000
v 0.0000 0.0000 -70.0000
v 60.0000 0.0000 -70.0000
v 42.4264 42.4264 -70.0000
v 0.0000 60.0000 -70.0000
v -42.4264 42.4264 -70.0000
v -60.0000 0.0000 -70.0000
v -42.4264 -42.4264 -70.0000
v -0.0000 -60.0000 -70.0000
v 42.4264 -42.4264 -70.0000
v 225.0000 -35.4794 35.0000
v 225.0000 -23.6529 -6.9753
v 225.0000 -11.8265 -21.7901
v 225.0000 0.0000 -25.0000
v 225.0000 11.8265 -21.7901
v 225.0000 23.6529 -6.9753
v 225.0000 35.4794 35.0000
v 261.1401 -57.1388 46.7426
v 261.1401 -38.0925 4.7673
v 261.1401 -19.0463 -10.0475
v 261.1401 0.0000 -13.2574
v 261.1401 19.0463 -10.0475
v 261.1401 38.0925 4.7673
v 261.1401 57.1388 46.7426
v 297.2803 -89.6182 58.4853
v 297.2803 -59.7455 16.5100
v 297.2803 -29.8727 1.6952
v 297.2803 0.0000 -1.5147
v 297.2803 29.8727 1.6952
v 297.2803 59.7455 16.5100
v 297.2803 89.6182 58.4853
v 333.4204 -112.0763 70.2279
v 333.4204 -74.7175 28.2526
v 333.4204 -37.3588 13.4378
v 333.4204 0.0000 10.2279
v 333.4204 37.3588 13.4378
v 333.4204 74.7175 28.2526
v 333.4204 112.0763 70.2279
v 369.5606 -125.5127 81.9706
v 369.5606 -83.6752 39.9953
v 369.5606 -41.8376 25.1805
v 369.5606 0.0000 21.9706
v 369.5606 41.8376 25.1805
v 369.5606 83.6752 39.9953
v 369.5606 125.5127 81.9706
v 405.7007 -130.0000 93.7132
v 405.7007 -86.6667 51.7379
v 405.7007 -43.3333 36.9231
v 405.7007 0.0000 33.7132
v 405.7007 43.3333 36.9231
v 405.7007 86.6667 51.7379
v 405.7007 130.0000 93.7132
v 441.8409 -125.5127 105.4559
v 441.8409 -83.6752 63.4806
v 441.8409 -41.8376 48.6658
v 441.8409 0.0000 45.4559
v 441.8409 41.8376 48.6658
v 441.8409 83.6752 63.4806
v 441.8409 125.5127 105.4559
v 477.9810 -112.0763 117.1985
v 477.9810 -74.7175 75.2232
v 477.9810 -37.3588 60.4084
v 477.9810 0.0000 57.1985
v 477.9810 37.3588 60.4084
v 477.9810 74.7175 75.2232
v 477.9810 112.0763 117.1985
v 514.1212 -89.6182 128.9412
v 514.1212 -59.7455 86.9659
v 514.1212 -29.8727 72.1510
v 514.1212 0.0000 68.9412
v 514.1212 29.8727 72.1510
v 514.1212 59.7455 86.9659
v 514.1212 89.6182 128.9412
v 550.2613 -57.1388 140.6838
v 550.2613 -38.0925 98.7085
v 550.2613 -19.0463 83.8937
v 550.2613 0.0000 80.6838
v 550.2613 19.0463 83.8937
v 550.2613 38.0925 98.7085
v 550.2613 57.1388 140.6838
v 586.4015 -0.0000 152.4265
v 586.4015 -0.0000 110.4511
v 586.4015 -0.0000 95.6363
v 586.4015 0.0000 92.4265
v 586.4015 0.0000 95.6363
v 586.4015 0.0000 110.4511
v 586.4015 0.0000 152.4265
v 184.1867 134.0113 35.0000
v 175.8242 142.3739 -6.9753
v 167.4616 150.7365 -21.7901
v 159.0990 159.0990 -25.0000
v 150.7365 167.4616 -21.7901
v 142.3739 175.8242 -6.9753
v 134.0113 184.1867 35.0000
v 225.0572 144.2507 46.7426
v 211.5895 157.7185 4.7673
v 198.1217 171.1862 -10.0475
v 184.6540 184.6540 -13.2574
v 171.1862 198.1217 -10.0475
v 157.7185 211.5895 4.7673
v 144.2507 225.0572 46.7426
v 273.5786 146.8392 58.4853
v 252.4554 167.9625 16.5100
v 231.3321 189.0857 1.6952
v 210.2089 210.2089 -1.5147
v 189.0857 231.3321 1.6952
v 167.9625 252.4554 16.5100
v 146.8392 273.5786 58.4853
v 315.0138 156.5140 70.2279
v 288.5971 182.9306 28.2526
v 262.1805 209.3472 13.4378
v 235.7639 235.7639 10.2279
v 209.3472 262.1805 13.4378
v 182.9306 288.5971 28.2526
v 156.5140 315.0138 70.2279
v 350.0697 172.5679 81.9706
v 320.4861 202.1515 39.9953
v 290.9024 231.7352 25.1805
v 261.3188 261.3188 21.9706
v 231.7352 290.9024 25.1805
v 202.1515 320.4861 39.9953
v 172.5679 350.0697 81.9706
v 378.7976 194.9499 93.7132
v 348.1563 225.5912 51.7379
v 317.5150 256.2324 36.9231
v 286.8737 286.8737 33.7132
v 256.2324 317.5150 36.9231
v 225.5912 348.1563 51.7379
v 194.9499 378.7976 93.7132
v 401.1796 223.6778 105.4559
v 371.5960 253.2614 63.4806
v 342.0123 282.8451 48.6658
v 312.4287 312.4287 45.4559
v 282.8451 342.0123 48.6658
v 253.2614 371.5960 63.4806
v 223.6778 401.1796 105.4559
v 417.2335 258.7337 117.1985
v 390.8169 285.1504 75.2232
v 364.4003 311.5670 60.4084
v 337.9836 337.9836 57.1985
v 311.5670 364.4003 60.4084
v 285.1504 390.8169 75.2232
v 258.7337 417.2335 117.1985
v 426.9082 300.1689 128.9412
v 405.7850 321.2921 86.9659
v 384.6618 342.4154 72.1510
v 363.5386 363.5386 68.9412
v 342.4154 384.6618 72.1510
v 321.2921 405.7850 86.9659
v 300.1689 426.9082 128.9412
v 429.4967 348.6903 140.6838
v 416.0290 362.1580 98.7085
v 402.5613 375.6258 83.8937
v 389.0935 389.0935 80.6838
v 375.6258 402.5613 83.8937
v 362.1580 416.0290 98.7085
v 348.6903 429.4967 140.6838
v 414.6485 414.6485 152.4265
v 414.6485 414.6485 110.4511
v 414.6485 414.6485 95.6363
v 414.6485 414.6485 92.4265
v 414.6485 414.6485 95.6363
v 414.6485 414.6485 110.4511
v 414.6485 414.6485 152.4265
v 35.4794 225.0000 35.0000
v 23.6529 225.0000 -6.9753
v 11.8265 225.0000 -21.7901
v 0.0000 225.0000 -25.0000
v -11.8265 225.0000 -21.7901
v -23.6529 225.0000 -6.9753
v -35.4794 225.0000 35.0000
v 57.1388 261.1401 46.7426
v 38.0925 261.1401 4.7673
v 19.0463 261.1401 -10.0475
v 0.0000 261.1401 -13.2574
v -19.0463 261.1401 -10.0475
v -38.0925 261.1401 4.7673
v -57.1388 261.1401 46.7426
v 89.6182 297.2803 58.4853
v 59.7455 297.2803 16.5100
v 29.8727 297.2803 1.6952
v 0.0000 297.2803 -1.5147
v -29.8727 297.2803 1.6952
v -59.7455 297.2803 16.5100
v -89.6182 297.2803 58.4853
v 112.0763 333.4204 70.2279
v 74.7175 333.4204 28.2526
v 37.3588 333.4204 13.4378
v 0.0000 333.4204 10.2279
v -37.3588 333.4204 13.4378
v -74.7175 333.4204 28.2526
v -112.0763 333.4204 70.2279
v 125.5127 369.5606 81.9706
v 83.6752 369.5606 39.9953
v 41.8376 369.5606 25.1805
v 0.0000 369.5606 21.9706
v -41.8376 369.5606 25.1805
v -83.6752 369.5606 39.9953
v -125.5127 369.5606 81.9706
v 130.0000 405.7007 93.7132
v 86.6667 405.7007 51.7379
v 43.3333 405.7007 36.9231
v 0.0000 405.7007 33.7132
v -43.3333 405.7007 36.9231
v -86.6667 405.7007 51.7379
v -130.0000 405.7007 93.7132
v 125.5127 441.8409 105.4559
v 83.6752 441.8409 63.4806
v 41.8376 441.8409 48.6658
v 0.0000 441.8409 45.4559
v -41.8376 441.8409 48.6658
v -83.6752 441.8409 63.4806
v -125.5127 441.8409 105.4559
v 112.0763 477.9810 117.1985
v 74.7175 477.9810 75.2232
v 37.3588 477.9810 60.4084
v 0.0000 477.9810 57.1985
v -37.3588 477.9810 60.4084
v -74.7175 477.9810 75.2232
v -112.0763 477.9810 117.1985
v 89.6182 514.1212 128.9412
v 59.7455 514.1212 86.9659
v 29.8727 514.1212 72.1510
v 0.0000 514.1212 68.9412
v -29.8727 514.1212 72.1510
v -59.7455 514.1212 86.9659
v -89.6182 514.1212 128.9412
v 57.1388 550.2613 140.6838
v 38.0925 550.2613 98.7085
v 19.0463 550.2613 83.8937
v 0.0000 550.2613 80.6838
v -19.0463 550.2613 83.8937
v -38.0925 550.2613 98.7085
v -57.1388 550.2613 140.6838
v 0.0000 586.4015 152.4265
v 0.0000 586.4015 110.4511
v 0.0000 586.4015 95.6363
v 0.0000 586.4015 92.4265
v -0.0000 586.4015 95.6363
v -0.0000 586.4015 110.4511
v -0.0000 586.4015 152.4265
v -134.0113 184.1867 35.0000
v -142.3739 175.8242 -6.9753
v -150.7365 167.4616 -21.7901
v -159.0990 159.0990 -25.0000
v -167.4616 150.7365 -21.7901
v -175.8242 142.3739 -6.9753
v -184.1867 134.0113 35.0000
v -144.2507 225.0572 46.7426
v -157.7185 211.5895 4.7673
v -171.1862 198.1217 -10.0475
v -184.6540 184.6540 -13.2574
v -198.1217 171.1862 -10.0475
v -211.5895 157.7185 4.7673
v -225.0572 144.2507 46.7426
v -146.8392 273.5786 58.4853
v -167.9625 252.4554 16.5100
v -189.0857 231.3321 1.6952
v -210.2089 210.2089 -1.5147
v -231.3321 189.0857 1.6952
v -252.4554 167.9625 16.5100
v -273.5786 146.8392 58.4853
v -156.5140 315.0138 70.2279
v -182.9306 288.5971 28.2526
v -209.3472 262.1805 13.4378
v -235.7639 235.7639 10.2279
v -262.1805 209.3472 13.4378
v -288.5971 182.9306 28.2526
v -315.0138 156.5140 70.2279
v -172.5679 350.0697 81.9706
v -202.1515 320.4861 39.9953
v -231.7352 290.9024 25.1805
v -261.3188 261.3188 21.9706
v -290.9024 231.7352 25.1805
v -320.4861 202.1515 39.9953
v -350.0697 172.5679 81.9706
v -194.9499 378.7976 93.7132
v -225.5912 348.1563 51.7379
v -256.2324 317.5150 36.9231
v -286.8737 286.8737 33.7132
v -317.5150 256.2324 36.9231
v -348.1563 225.5912 51.7379
v -378.7976 194.9499 93.7132
v -223.6778 401.1796 105.4559
v -253.2614 371.5960 63.4806
v -282.8451 342.0123 48.6658
v -312.4287 312.4287 45.4559
v -342.0123 282.8451 48.6658
v -371.5960 253.2614 63.4806
v -401.1796 223.6778 105.4559
v -258.7337 417.2335 117.1985
v -285.1504 390.8169 75.2232
v -311.5670 364.4003 60.4084
v -337.9836 337.9836 57.1985
v -364.4003 311.5670 60.4084
v -390.8169 285.1504 75.2232
v -417.2335 258.7337 117.1985
v -300.1689 426.9082 128.9412
v -321.2921 405.7850 86.9659
v -342.4154 384.6618 72.1510
v -363.5386 363.5386 68.9412
v -384.6618 342.4154 72.1510
v -405.7850 321.2921 86.9659
v -426.9082 300.1689 128.9412
v -348.6903 429.4967 140.6838
v -362.1580 416.0290 98.7085
v -375.6258 402.5613 83.8937
v -389.0935 389.0935 80.6838
v -402.5613 375.6258 83.8937
v -416.0290 362.1580 98.7085
v -429.4967 348.6903 140.6838
v -414.6485 414.6485 152.4265
v -414.6485 414.6485 110.4511
v -414.6485 414.6485 95.6363
v -414.6485 414.6485 92.4265
v -414.6485 414.6485 95.6363
v -414.6485 414.6485 110.4511
v -414.6485 414.6485 152.4265
v -225.0000 35.4794 35.0000
v -225.0000 23.6529 -6.9753
v -225.0000 11.8265 -21.7901
v -225.0000 0.0000 -25.0000
v -225.0000 -11.8265 -21.7901
v -225.0000 -23.6529 -6.9753
v -225.0000 -35.4794 35.0000
v -261.1401 57.1388 46.7426
v -261.1401 38.0925 4.7673
v -261.1401 19.0463 -10.0475
v -261.1401 0.0000 -13.2574
v -261.1401 -19.0463 -10.0475
v -261.1401 -38.0925 4.7673
v -261.1401 -57.1388 46.7426
v -297.2803 89.6182 58.4853
v -297.2803 59.7455 16.5100
v -297.2803 29.8727 1.6952
v -297.2803 0.0000 -1.5147
v -297.2803 -29.8727 1.6952
v -297.2803 -59.7455 16.5100
v -297.2803 -89.6182 58.4853
v -333.4204 112.0763 70.2279
v -333.4204 74.7175 28.2526
v -333.4204 37.3588 13.4378
v -333.4204 0.0000 10.2279
v -333.4204 -37.3588 13.4378
v -333.4204 -74.7175 28.2526
v -333.4204 -112.0763 70.2279
v -369.5606 125.5127 81.9706
v -369.5606 83.6752 39.9953
v -369.5606 41.8376 25.1805
v -369.5606 0.0000 21.9706
v -369.5606 -41.8376 25.1805
v -369.5606 -83.6752 39.9953
v -369.5606 -125.5127 81.9706
v -405.7007 130.0000 93.7132
v -405.7007 86.6667 51.7379
v -405.7007 43.3333 36.9231
v -405.7007 0.0000 33.7132
v -405.7007 -43.3333 36.9231
v -405.7007 -86.6667 51.7379
v -405.7007 -130.0000 93.7132
v -441.8409 125.5127 105.4559
v -441.8409 83.6752 63.4806
v -441.8409 41.8376 48.6658
v -441.8409 0.0000 45.4559
v -441.8409 -41.8376 48.6658
v -441.8409 -83.6752 63.4806
v -441.8409 -125.5127 105.4559
v -477.9810 112.0763 117.1985
v -477.9810 74.7175 75.2232
v -477.9810 37.3588 60.4084
v -477.9810 0.0000 57.1985
v -477.9810 -37.3588 60.4084
v -477.9810 -74.7175 75.2232
v -477.9810 -112.0763 117.1985
v -514.1212 89.6182 128.9412
v -514.1212 59.7455 86.9659
v -514.1212 29.8727 72.1510
v -514.1212 0.0000 68.9412
v -514.1212 -29.8727 72.1510
v -514.1212 -59.7455 86.9659
v -514.1212 -89.6182 128.9412
v -550.2613 57.1388 140.6838
v -550.2613 38.0925 98.7085
v -550.2613 19.0463 83.8937
v -550.2613 0.0000 80.6838
v -550.2613 -19.0463 83.8937
v -550.2613 -38.0925 98.7085
v -550.2613 -57.1388 140.6838
v -586.4015 0.0000 152.4265
v -586.4015 0.0000 110.4511
v -586.4015 0.0000 95.6363
v -586.4015 0.0000 92.4265
v -586.4015 -0.0000 95.6363
v -586.4015 -0.0000 110.4511
v -586.4015 -0.0000 152.4265
v -184.1867 -134.0113 35.0000
v -175.8242 -142.3739 -6.9753
v -167.4616 -150.7365 -21.7901
v -159.0990 -159.0990 -25.0000
v -150.7365 -167.4616 -21.7901
v -142.3739 -175.8242 -6.9753
v -134.0113 -184.1867 35.0000
v -225.0572 -144.2507 46.7426
v -211.5895 -157.7185 4.7673
v -198.1217 -171.1862 -10.0475
v -184.6540 -184.6540 -13.2574
v -171.1862 -198.1217 -10.0475
v -157.7185 -211.5895 4.7673
v -144.2507 -225.0572 46.7426
v -273.5786 -146.8392 58.4853
v -252.4554 -167.9625 16.5100
v -231.3321 -189.0857 1.6952
v -210.2089 -210.2089 -1.5147
v -189.0857 -231.3321 1.6952
v -167.9625 -252.4554 16.5100
v -146.8392 -273.5786 58.4853
v -315.0138 -156.5140 70.2279
v -288.5971 -182.9306 28.2526
v -262.1805 -209.3472 13.4378
v -235.7639 -235.7639 10.2279
v -209.3472 -262.1805 13.4378
v -182.9306 -288.5971 28.2526
v -156.5140 -315.0138 70.2279
v -350.0697 -172.5679 81.9706
v -320.4861 -202.1515 39.9953
v -290.9024 -231.7352 25.1805
v -261.3188 -261.3188 21.9706
v -231.7352 -290.9024 25.1805
v -202.1515 -320.4861 39.9953
v -172.5679 -350.0697 81.9706
v -378.7976 -194.9499 93.7132
v -348.1563 -225.5912 51.7379
v -317.5150 -256.2324 36.9231
v -286.8737 -286.8737 33.7132
v -256.2324 -317.5150 36.9231
v -225.5912 -348.1563 51.7379
v -194.9499 -378.7976 93.7132
v -401.1796 -223.6778 105.4559
v -371.5960 -253.2614 63.4806
v -342.0123 -282.8451 48.6658
v -312.4287 -312.4287 45.4559
v -282.8451 -342.0123 48.6658
v -253.2614 -371.5960 63.4806
v -223.6778 -401.1796 105.4559
v -417.2335 -258.7337 117.1985
v -390.8169 -285.1504 75.2232
v -364.4003 -311.5670 60.4084
v -337.9836 -337.9836 57.1985
v -311.5670 -364.4003 60.4084
v -285.1504 -390.8169 75.2232
v -258.7337 -417.2335 117.1985
v -426.9082 -300.1689 128.9412
v -405.7850 -321.2921 86.9659
v -384.6618 -342.4154 72.1510
v -363.5386 -363.5386 68.9412
v -342.4154 -384.6618 72.1510
v -321.2921 -405.7850 86.9659
v -300.1689 -426.9082 128.9412
v -429.4967 -348.6903 140.6838
v -416.0290 -362.1580 98.7085
v -402.5613 -375.6258 83.8937
v -389.0935 -389.0935 80.6838
v -375.6258 -402.5613 83.8937
v -362.1580 -416.0290 98.7085
v -348.6903 -429.4967 140.6838
v -414.6485 -414.6485 152.4265
v -414.6485 -414.6485 110.4511
v -414.6485 -414.6485 95.6363
v -414.6485 -414.6485 92.4265
v -414.6485 -414.6485 95.6363
v -414.6485 -414.6485 110.4511
v -414.6485 -414.6485 152.4265
v -35.4794 -225.0000 35.0000
v -23.6529 -225.0000 -6.9753
v -11.8265 -225.0000 -21.7901
v -0.0000 -225.0000 -25.0000
v 11.8265 -225.0000 -21.7901
v 23.6529 -225.0000 -6.9753
v 35.4794 -225.0000 35.0000
v -57.1388 -261.1401 46.7426
v -38.0925 -261.1401 4.7673
v -19.0463 -261.1401 -10.0475
v -0.0000 -261.1401 -13.2574
v 19.0463 -261.1401 -10.0475
v 38.0925 -261.1401 4.7673
v 57.1388 -261.1401 46.7426
v -89.6182 -297.2803 58.4853
v -59.7455 -297.2803 16.5100
v -29.8727 -297.2803 1.6952
v -0.0000 -297.2803 -1.5147
v 29.8727 -297.2803 1.6952
v 59.7455 -297.2803 16.5100
v 89.6182 -297.2803 58.4853
v -112.0763 -333.4204 70.2279
v -74.7175 -333.4204 28.2526
v -37.3588 -333.4204 13.4378
v -0.0000 -333.4204 10.2279
v 37.3588 -333.4204 13.4378
v 74.7175 -333.4204 28.2526
v 112.0763 -333.4204 70.2279
v -125.5127 -369.5606 81.9706
v -83.6752 -369.5606 39.9953
v -41.8376 -369.5606 25.1805
v -0.0000 -369.5606 21.9706
v 41.8376 -369.5606 25.1805
v 83.6752 -369.5606 39.9953
v 125.5127 -369.5606 81.9706
v -130.0000 -405.7007 93.7132
v -86.6667 -405.7007 51.7379
v -43.3333 -405.7007 36.9231
v -0.0000 -405.7007 33.7132
v 43.3333 -405.7007 36.9231
v 86.6667 -405.7007 51.7379
v 130.0000 -405.7007 93.7132
v -125.5127 -441.8409 105.4559
v -83.6752 -441.8409 63.4806
v -41.8376 -441.8409 48.6658
v -0.0000 -441.8409 45.4559
v 41.8376 -441.8409 48.6658
v 83.6752 -441.8409 63.4806
v 125.5127 -441.8409 105.4559
v -112.0763 -477.9810 117.1985
v -74.7175 -477.9810 75.2232
v -37.3588 -477.9810 60.4084
v -0.0000 -477.9810 57.1985
v 37.3588 -477.9810 60.4084
v 74.7175 -477.9810 75.2232
v 112.0763 -477.9810 117.1985
v -89.6182 -514.1212 128.9412
v -59.7455 -514.1212 86.9659
v -29.8727 -514.1212 72.1510
v -0.0000 -514.1212 68.9412
v 29.8727 -514.1212 72.1510
v 59.7455 -514.1212 86.9659
v 89.6182 -514.1212 128.9412
v -57.1388 -550.2613 140.6838
v -38.0925 -550.2613 98.7085
v -19.0463 -550.2613 83.8937
v -0.0000 -550.2613 80.6838
v 19.0463 -550.2613 83.8937
v 38.0925 -550.2613 98.7085
v 57.1388 -550.2613 140.6838
v -0.0000 -586.4015 152.4265
v -0.0000 -586.4015 110.4511
v -0.0000 -586.4015 95.6363
v -0.0000 -586.4015 92.4265
v 0.0000 -586.4015 95.6363
v 0.0000 -586.4015 110.4511
v 0.0000 -586.4015 152.4265
v 134.0113 -184.1867 35.0000
v 142.3739 -175.8242 -6.9753
v 150.7365 -167.4616 -21.7901
v 159.0990 -159.0990 -25.0000
v 167.4616 -150.7365 -21.7901
v 175.8242 -142.3739 -6.9753
v 184.1867 -134.0113 35.0000
v 144.2507 -225.0572 46.7426
v 157.7185 -211.5895 4.7673
v 171.1862 -198.1217 -10.0475
v 184.6540 -184.6540 -13.2574
v 198.1217 -171.1862 -10.0475
v 211.5895 -157.7185 4.7673
v 225.0572 -144.2507 46.7426
v 146.8392 -273.5786 58.4853
v 167.9625 -252.4554 16.5100
v 189.0857 -231.3321 1.6952
v 210.2089 -210.2089 -1.5147
v 231.3321 -189.0857 1.6952
v 252.4554 -167.9625 16.5100
v 273.5786 -146.8392 58.4853
v 156.5140 -315.0138 70.2279
v 182.9306 -288.5971 28.2526
v 209.3472 -262.1805 13.4378
v 235.7639 -235.7639 10.2279
v 262.1805 -209.3472 13.4378
v 288.5971 -182.9306 28.2526
v 315.0138 -156.5140 70.2279
v 172.5679 -350.0697 81.9706
v 202.1515 -320.4861 39.9953
v 231.7352 -290.9024 25.1805
v 261.3188 -261.3188 21.9706
v 290.9024 -231.7352 25.1805
v 320.4861 -202.1515 39.9953
v 350.0697 -172.5679 81.9706
v 194.9499 -378.7976 93.7132
v 225.5912 -348.1563 51.7379
v 256.2324 -317.5150 36.9231
v 286.8737 -286.8737 33.7132
v 317.5150 -256.2324 36.9231
v 348.1563 -225.5912 51.7379
v 378.7976 -194.9499 93.7132
v 223.6778 -401.1796 105.4559
v 253.2614 -371.5960 63.4806
v 282.8451 -342.0123 48.6658
v 312.4287 -312.4287 45.4559
v 342.0123 -282.8451 48.6658
v 371.5960 -253.2614 63.4806
v 401.1796 -223.6778 105.4559
v 258.7337 -417.2335 117.1985
v 285.1504 -390.8169 75.2232
v 311.5670 -364.4003 60.4084
v 337.9836 -337.9836 57.1985
v 364.4003 -311.5670 60.4084
v 390.8169 -285.1504 75.2232
v 417.2335 -258.7337 117.1985
v 300.1689 -426.9082 128.9412
v 321.2921 -405.7850 86.9659
v 342.4154 -384.6618 72.1510
v 363.5386 -363.5386 68.9412
v 384.6618 -342.4154 72.1510
v 405.7850 -321.2921 86.9659
v 426.9082 -300.1689 128.9412
v 348.6903 -429.4967 140.6838
v 362.1580 -416.0290 98.7085
v 375.6258 -402.5613 83.8937
v 389.0935 -389.0935 80.6838
v 402.5613 -375.6258 83.8937
v 416.0290 -362.1580 98.7085
v 429.4967 -348.6903 140.6838
v 414.6485 -414.6485 152.4265
v 414.6485 -414.6485 110.4511
v 414.6485 -414.6485 95.6363
v 414.6485 -414.6485 92.4265
v 414.6485 -414.6485 95.6363
v 414.6485 -414.6485 110.4511
v 414.6485 -414.6485 152.4265
vn 0.9952 0.0980 0.0000
vn 0.9952 0.0980 0.0000
vn -0.3903 -0.0384 0.9199
vn -0.3903 -0.0384 0.9199
vn 0.9569 0.2903 0.0000
vn 0.9569 0.2903 0.0000
vn -0.3753 -0.1138 0.9199
vn -0.3753 -0.1138 0.9199
vn 0.8819 0.4714 0.0000
vn 0.8819 0.4714 0.0000
vn -0.3458 -0.1849 0.9199
vn -0.3458 -0.1849 0.9199
vn 0.7730 0.6344 0.0000
vn 0.7730 0.6344 0.0000
vn -0.3031 -0.2488 0.9199
vn -0.3031 -0.2488 0.9199
vn 0.6344 0.7730 0.0000
vn 0.6344 0.7730 0.0000
vn -0.2488 -0.3031 0.9199
vn -0.2488 -0.3031 0.9199
vn 0.4714 0.8819 0.0000
vn 0.4714 0.8819 0.0000
vn -0.1849 -0.3458 0.9199
vn -0.1849 -0.3458 0.9199
vn 0.2903 0.9569 0.0000
vn 0.2903 0.9569 0.0000
vn -0.1138 -0.3753 0.9199
vn -0.1138 -0.3753 0.9199
vn 0.0980 0.9952 0.0000
vn 0.0980 0.9952 0.0000
vn -0.0384 -0.3903 0.9199
vn -0.0384 -0.3903 0.9199
vn -0.0980 0.9952 0.0000
vn -0.0980 0.9952 0.0000
vn 0.0384 -0.3903 0.9199
vn 0.0384 -0.3903 0.9199
vn -0.2903 0.9569 0.0000
vn -0.2903 0.9569 0.0000
vn 0.1138 -0.3753 0.9199
vn 0.1138 -0.3753 0.9199
vn -0.4714 0.8819 0.0000
vn -0.4714 0.8819 0.0000
vn 0.1849 -0.3458 0.9199
vn 0.1849 -0.3458 0.9199
vn -0.6344 0.7730 0.0000
vn -0.6344 0.7730 0.0000
vn 0.2488 -0.3031 0.9199
vn 0.2488 -0.3031 0.9199
vn -0.7730 0.6344 0.0000
vn -0.7730 0.6344 0.0000
vn 0.3031 -0.2488 0.9199
vn 0.3031 -0.2488 0.9199
vn -0.8819 0.4714 0.0000
vn -0.8819 0.4714 0.0000
vn 0.3458 -0.1849 0.9199
vn 0.3458 -0.1849 0.9199
vn -0.9569 0.2903 0.0000
vn -0.9569 0.2903 0.0000
vn 0.3753 -0.1138 0.9199
vn 0.3753 -0.1138 0.9199
vn -0.9952 0.0980 0.0000
vn -0.9952 0.0980 0.0000
vn 0.3903 -0.0384 0.9199
vn 0.3903 -0.0384 0.9199
vn -0.9952 -0.0980 -0.0000
vn -0.9952 -0.0980 -0.0000
vn 0.3903 0.0384 0.9199
vn 0.3903 0.0384 0.9199
vn -0.9569 -0.2903 -0.0000
vn -0.9569 -0.2903 -0.0000
vn 0.3753 0.1138 0.9199
vn 0.3753 0.1138 0.9199
vn -0.8819 -0.4714 -0.0000
vn -0.8819 -0.4714 -0.0000
vn 0.3458 0.1849 0.9199
vn 0.3458 0.1849 0.9199
vn -0.7730 -0.6344 -0.0000
vn -0.7730 -0.6344 -0.0000
vn 0.3031 0.2488 0.9199
vn 0.3031 0.2488 0.9199
vn -0.6344 -0.7730 -0.0000
vn -0.6344 -0.7730 -0.0000
vn 0.2488 0.3031 0.9199
vn 0.2488 0.3031 0.9199
vn -0.4714 -0.8819 -0.0000
vn -0.4714 -0.8819 -0.0000
vn 0.1849 0.3458 0.9199
vn 0.1849 0.3458 0.9199
vn -0.2903 -0.9569 -0.0000
vn -0.2903 -0.9569 -0.0000
vn 0.1138 0.3753 0.9199
vn 0.1138 0.3753 0.9199
vn -0.0980 -0.9952 -0.0000
vn -0.0980 -0.9952 -0.0000
vn 0.0384 0.3903 0.9199
vn 0.0384 0.3903 0.9199
vn 0.0980 -0.9952 0.0000
vn 0.0980 -0.9952 0.0000
vn -0.0384 0.3903 0.9199
vn -0.0384 0.3903 0.9199
vn 0.2903 -0.9569 0.0000
vn 0.2903 -0.9569 0.0000
vn -0.1138 0.3753 0.9199
vn -0.1138 0.3753 0.9199
vn 0.4714 -0.8819 0.0000
vn 0.4714 -0.8819 0.0000
vn -0.1849 0.3458 0.9199
vn -0.1849 0.3458 0.9199
vn 0.6344 -0.7730 0.0000
vn 0.6344 -0.7730 0.0000
vn -0.2488 0.3031 0.9199
vn -0.2488 0.3031 0.9199
vn 0.7730 -0.6344 0.0000
vn 0.7730 -0.6344 0.0000
vn -0.3031 0.2488 0.9199
vn -0.3031 0.2488 0.9199
vn 0.8819 -0.4714 0.0000
vn 0.8819 -0.4714 0.0000
vn -0.3458 0.1849 0.9199
vn -0.3458 0.1849 0.9199
vn 0.9569 -0.2903 0.0000
vn 0.9569 -0.2903 0.0000
vn -0.3753 0.1138 0.9199
vn -0.3753 0.1138 0.9199
vn 0.9952 -0.0980 0.0000
vn 0.9952 -0.0980 0.0000
vn -0.3903 0.0384 0.9199
vn -0.3903 0.0384 0.9199
vn 0.0000 0.0000 1.0000
vn 0.0000 0.0000 1.0000
vn 0.0000 -0.0000 1.0000
vn 0.0000 0.0000 1.0000
vn 0.0000 0.0000 1.0000
vn 0.0000 0.0000 1.0000
vn 0.0000 0.0000 1.0000
vn -0.0000 0.0000 1.0000
vn 0.4391 0.8648 0.2436
vn 0.2238 0.8875 0.4027
vn 0.1089 0.7769 0.6202
vn -0.1326 0.6085 0.7824
vn -0.2528 0.2534 0.9337
vn -0.3051 0.1583 0.9391
vn -0.2992 -0.2499 0.9209
vn -0.2760 -0.1597 0.9478
vn -0.0465 -0.7807 0.6232
vn -0.0112 -0.6139 0.7893
vn 0.2842 -0.9228 0.2600
vn 0.3805 -0.8421 0.3821
vn 0.5646 0.7516 0.3410
vn 0.2871 0.7804 0.5554
vn 0.1107 0.6102 0.7845
vn -0.1561 0.4389 0.8849
vn -0.2612 0.1604 0.9519
vn -0.3074 0.1017 0.9461
vn -0.3051 -0.1583 0.9391
vn -0.2795 -0.1026 0.9547
vn -0.0724 -0.6124 0.7873
vn -0.0249 -0.4442 0.8956
vn 0.3804 -0.8422 0.3821
vn 0.4777 -0.7157 0.5094
vn 0.3030 0.7765 0.5526
vn 0.0930 0.7438 0.6620
vn -0.1064 0.4418 0.8908
vn -0.2201 0.3596 0.9068
vn -0.2882 0.1023 0.9521
vn -0.3080 0.0814 0.9479
vn -0.3074 -0.1017 0.9461
vn -0.2926 -0.0819 0.9527
vn -0.1952 -0.4357 0.8786
vn -0.1477 -0.3646 0.9194
vn 0.1475 -0.8058 0.5735
vn 0.2409 -0.7250 0.6453
vn 0.0616 0.7456 0.6636
vn -0.0537 0.7072 0.7049
vn -0.2061 0.3607 0.9096
vn -0.2561 0.3227 0.9112
vn -0.2988 0.0817 0.9508
vn -0.3082 0.0728 0.9485
vn -0.3080 -0.0814 0.9479
vn -0.3000 -0.0730 0.9511
vn -0.2483 -0.3571 0.9005
vn -0.2182 -0.3258 0.9199
vn -0.0309 -0.7466 0.6645
vn 0.0339 -0.7079 0.7055
vn -0.1400 0.7013 0.6990
vn -0.1731 0.6853 0.7074
vn -0.2684 0.3215 0.9081
vn -0.2821 0.3104 0.9078
vn -0.3055 0.0728 0.9494
vn -0.3083 0.0703 0.9487
vn -0.3082 -0.0728 0.9485
vn -0.3056 -0.0703 0.9496
vn -0.2807 -0.3204 0.9047
vn -0.2702 -0.3115 0.9110
vn -0.1683 -0.6982 0.6959
vn -0.1454 -0.6884 0.7106
vn -0.3046 0.6627 0.6841
vn -0.2768 0.6806 0.6784
vn -0.3170 0.3068 0.8974
vn -0.3049 0.3179 0.8978
vn -0.3109 0.0702 0.9479
vn -0.3082 0.0728 0.9485
vn -0.3083 -0.0703 0.9487
vn -0.3109 -0.0727 0.9477
vn -0.3055 -0.3080 0.9010
vn -0.3167 -0.3166 0.8941
vn -0.2794 -0.6681 0.6897
vn -0.3025 -0.6751 0.6729
vn -0.4420 0.6353 0.6333
vn -0.3723 0.6933 0.6170
vn -0.3626 0.3111 0.8785
vn -0.3284 0.3482 0.8780
vn -0.3163 0.0726 0.9459
vn -0.3080 0.0814 0.9479
vn -0.3082 -0.0728 0.9485
vn -0.3171 -0.0812 0.9449
vn -0.3284 -0.3153 0.8904
vn -0.3661 -0.3430 0.8650
vn -0.3753 -0.6565 0.6543
vn -0.4427 -0.6698 0.5961
vn -0.5624 0.6176 0.5497
vn -0.4655 0.7211 0.5132
vn -0.4140 0.3356 0.8462
vn -0.3578 0.4149 0.8366
vn -0.3231 0.0810 0.9429
vn -0.3074 0.1017 0.9461
vn -0.3080 -0.0814 0.9479
vn -0.3263 -0.1010 0.9399
vn -0.3539 -0.3448 0.8694
vn -0.4292 -0.4013 0.8092
vn -0.4652 -0.6613 0.5885
vn -0.5705 -0.6691 0.4762
vn -0.6773 0.5994 0.4266
vn -0.5622 0.7531 0.3417
vn -0.4868 0.3881 0.7826
vn -0.4030 0.5619 0.7224
vn -0.3346 0.1007 0.9370
vn -0.3051 0.1583 0.9391
vn -0.3074 -0.1017 0.9461
vn -0.3472 -0.1559 0.9248
vn -0.3905 -0.4090 0.8247
vn -0.5296 -0.5208 0.6696
vn -0.5603 -0.6748 0.4802
vn -0.6898 -0.6593 0.2992
vn -0.8441 0.4883 0.2216
vn -0.7255 0.6883 0.0000
vn -0.6704 0.4555 0.5857
vn -0.4662 0.8847 0.0000
vn -0.3778 0.1539 0.9130
vn -0.0000 1.0000 0.0000
vn -0.3051 -0.1583 0.9391
vn -0.4662 -0.8847 0.0000
vn -0.5017 -0.5311 0.6828
vn -0.7255 -0.6883 0.0000
vn -0.7381 -0.6144 0.2788
vn -0.8451 -0.5345 0.0000
vn -0.3010 0.9220 0.2436
vn -0.4694 0.7858 0.4027
vn -0.4723 0.6263 0.6202
vn -0.5241 0.3365 0.7824
vn -0.3579 0.0005 0.9337
vn -0.3277 -0.1038 0.9391
vn -0.0348 -0.3883 0.9209
vn -0.0822 -0.3081 0.9478
vn 0.5191 -0.5849 0.6232
vn 0.4262 -0.4420 0.7893
vn 0.8535 -0.4516 0.2600
vn 0.8646 -0.3264 0.3821
vn -0.1322 0.9307 0.3410
vn -0.3488 0.7549 0.5554
vn -0.3532 0.5097 0.7845
vn -0.4207 0.2000 0.8849
vn -0.2981 -0.0713 0.9519
vn -0.2893 -0.1455 0.9461
vn -0.1038 -0.3277 0.9391
vn -0.1251 -0.2701 0.9547
vn 0.3818 -0.4842 0.7873
vn 0.2965 -0.3317 0.8956
vn 0.8645 -0.3265 0.3821
vn 0.8439 -0.1683 0.5094
vn -0.3348 0.7633 0.5526
vn -0.4601 0.5917 0.6620
vn -0.3876 0.2371 0.8908
vn -0.4099 0.0986 0.9068
vn -0.2761 -0.1314 0.9521
vn -0.2754 -0.1602 0.9479
vn -0.1455 -0.2893 0.9461
vn -0.1490 -0.2648 0.9527
vn 0.1701 -0.4462 0.8786
vn 0.1534 -0.3622 0.9194
vn 0.6741 -0.4655 0.5735
vn 0.6830 -0.3423 0.6453
vn -0.4837 0.5707 0.6636
vn -0.5381 0.4621 0.7049
vn -0.4008 0.1093 0.9096
vn -0.4092 0.0471 0.9112
vn -0.2691 -0.1535 0.9508
vn -0.2694 -0.1665 0.9485
vn -0.1602 -0.2754 0.9479
vn -0.1605 -0.2637 0.9511
vn 0.0769 -0.4281 0.9005
vn 0.0761 -0.3846 0.9199
vn 0.5061 -0.5498 0.6645
vn 0.5245 -0.4765 0.7055
vn -0.5949 0.3969 0.6990
vn -0.6070 0.3621 0.7074
vn -0.4172 0.0376 0.9081
vn -0.4189 0.0200 0.9078
vn -0.2675 -0.1645 0.9494
vn -0.2677 -0.1683 0.9487
vn -0.1665 -0.2694 0.9485
vn -0.1664 -0.2658 0.9496
vn 0.0280 -0.4250 0.9047
vn 0.0292 -0.4113 0.9110
vn 0.3747 -0.6127 0.6959
vn 0.3839 -0.5896 0.7106
vn -0.6840 0.2532 0.6841
vn -0.6770 0.2856 0.6784
vn -0.4411 -0.0072 0.8974
vn -0.4404 0.0092 0.8978
vn -0.2695 -0.1702 0.9479
vn -0.2694 -0.1665 0.9485
vn -0.1683 -0.2677 0.9487
vn -0.1684 -0.2713 0.9477
vn 0.0018 -0.4338 0.9010
vn -0.0001 -0.4478 0.8941
vn 0.2748 -0.6699 0.6897
vn 0.2635 -0.6912 0.6729
vn -0.7618 0.1367 0.6333
vn -0.7535 0.2270 0.6170
vn -0.4763 -0.0364 0.8785
vn -0.4784 0.0140 0.8780
vn -0.2750 -0.1724 0.9459
vn -0.2754 -0.1602 0.9479
vn -0.1665 -0.2694 0.9485
vn -0.1668 -0.2816 0.9449
vn -0.0093 -0.4551 0.8904
vn -0.0163 -0.5014 0.8650
vn 0.1988 -0.7296 0.6543
vn 0.1606 -0.7867 0.5961
vn -0.8344 0.0390 0.5497
vn -0.8390 0.1807 0.5132
vn -0.5300 -0.0554 0.8462
vn -0.5463 0.0404 0.8366
vn -0.2858 -0.1712 0.9429
vn -0.2893 -0.1455 0.9461
vn -0.1602 -0.2754 0.9479
vn -0.1593 -0.3021 0.9399
vn -0.0065 -0.4940 0.8694
vn -0.0197 -0.5872 0.8092
vn 0.1387 -0.7965 0.5885
vn 0.0697 -0.8766 0.4762
vn -0.9028 -0.0551 0.4266
vn -0.9301 0.1350 0.3417
vn -0.6186 -0.0698 0.7826
vn -0.6823 0.1123 0.7224
vn -0.3078 -0.1654 0.9370
vn -0.3277 -0.1038 0.9391
vn -0.1455 -0.2893 0.9461
vn -0.1353 -0.3557 0.9248
vn 0.0131 -0.5653 0.8247
vn -0.0062 -0.7427 0.6696
vn 0.0809 -0.8734 0.4802
vn -0.0215 -0.9540 0.2992
vn -0.9421 -0.2515 0.2216
vn -0.9997 -0.0263 0.0000
vn -0.7962 -0.1520 0.5857
vn -0.9552 0.2959 0.0000
vn -0.3759 -0.1583 0.9130
vn -0.7071 0.7071 0.0000
vn -0.1038 -0.3277 0.9391
vn 0.2959 -0.9552 0.0000
vn 0.0208 -0.7303 0.6828
vn -0.0263 -0.9997 0.0000
vn -0.0875 -0.9564 0.2788
vn -0.2196 -0.9756 0.0000
vn -0.8648 0.4391 0.2436
vn -0.8875 0.2238 0.4027
vn -0.7769 0.1089 0.6202
vn -0.6085 -0.1326 0.7824
vn -0.2534 -0.2528 0.9337
vn -0.1583 -0.3051 0.9391
vn 0.2499 -0.2992 0.9209
vn 0.1597 -0.2760 0.9478
vn 0.7807 -0.0465 0.6232
vn 0.6139 -0.0112 0.7893
vn 0.9228 0.2842 0.2600
vn 0.8421 0.3805 0.3821
vn -0.7516 0.5646 0.3410
vn -0.7804 0.2871 0.5554
vn -0.6102 0.1107 0.7845
vn -0.4389 -0.1561 0.8849
vn -0.1604 -0.2612 0.9519
vn -0.1017 -0.3074 0.9461
vn 0.1583 -0.3051 0.9391
vn 0.1026 -0.2795 0.9547
vn 0.6124 -0.0724 0.7873
vn 0.4442 -0.0249 0.8956
vn 0.8422 0.3804 0.3821
vn 0.7157 0.4777 0.5094
vn -0.7765 0.3030 0.5526
vn -0.7438 0.0930 0.6620
vn -0.4418 -0.1064 0.8908
vn -0.3596 -0.2201 0.9068
vn -0.1023 -0.2882 0.9521
vn -0.0814 -0.3080 0.9479
vn 0.1017 -0.3074 0.9461
vn 0.0819 -0.2926 0.9527
vn 0.4357 -0.1952 0.8786
vn 0.3646 -0.1477 0.9194
vn 0.8058 0.1475 0.5735
vn 0.7250 0.2409 0.6453
vn -0.7456 0.0616 0.6636
vn -0.7072 -0.0537 0.7049
vn -0.3607 -0.2061 0.9096
vn -0.3227 -0.2561 0.9112
vn -0.0817 -0.2988 0.9508
vn -0.0728 -0.3082 0.9485
vn 0.0814 -0.3080 0.9479
vn 0.0730 -0.3000 0.9511
vn 0.3571 -0.2483 0.9005
vn 0.3258 -0.2182 0.9199
vn 0.7466 -0.0309 0.6645
vn 0.7079 0.0339 0.7055
vn -0.7013 -0.1400 0.6990
vn -0.6853 -0.1731 0.7074
vn -0.3215 -0.2684 0.9081
vn -0.3104 -0.2821 0.9078
vn -0.0728 -0.3055 0.9494
vn -0.0703 -0.3083 0.9487
vn 0.0728 -0.3082 0.9485
vn 0.0703 -0.3056 0.9496
vn 0.3204 -0.2807 0.9047
vn 0.3115 -0.2702 0.9110
vn 0.6982 -0.1683 0.6959
vn 0.6884 -0.1454 0.7106
vn -0.6627 -0.3046 0.6841
vn -0.6806 -0.2768 0.6784
vn -0.3068 -0.3170 0.8974
vn -0.3179 -0.3049 0.8978
vn -0.0702 -0.3109 0.9479
vn -0.0728 -0.3082 0.9485
vn 0.0703 -0.3083 0.9487
vn 0.0727 -0.3109 0.9477
vn 0.3080 -0.3055 0.9010
vn 0.3166 -0.3167 0.8941
vn 0.6681 -0.2794 0.6897
vn 0.6751 -0.3025 0.6729
vn -0.6353 -0.4420 0.6333
vn -0.6933 -0.3723 0.6170
vn -0.3111 -0.3626 0.8785
vn -0.3482 -0.3284 0.8780
vn -0.0726 -0.3163 0.9459
vn -0.0814 -0.3080 0.9479
vn 0.0728 -0.3082 0.9485
vn 0.0812 -0.3171 0.9449
vn 0.3153 -0.3284 0.8904
vn 0.3430 -0.3661 0.8650
vn 0.6565 -0.3753 0.6543
vn 0.6698 -0.4427 0.5961
vn -0.6176 -0.5624 0.5497
vn -0.7211 -0.4655 0.5132
vn -0.3356 -0.4140 0.8462
vn -0.4149 -0.3578 0.8366
vn -0.0810 -0.3231 0.9429
vn -0.1017 -0.3074 0.9461
vn 0.0814 -0.3080 0.9479
vn 0.1010 -0.3263 0.9399
vn 0.3448 -0.3539 0.8694
vn 0.4013 -0.4292 0.8092
vn 0.6613 -0.4652 0.5885
vn 0.6691 -0.5705 0.4762
vn -0.5994 -0.6773 0.4266
vn -0.7531 -0.5622 0.3417
vn -0.3881 -0.4868 0.7826
vn -0.5619 -0.4030 0.7224
vn -0.1007 -0.3346 0.9370
vn -0.1583 -0.3051 0.9391
vn 0.1017 -0.3074 0.9461
vn 0.1559 -0.3472 0.9248
vn 0.4090 -0.3905 0.8247
vn 0.5208 -0.5296 0.6696
vn 0.6748 -0.5603 0.4802
vn 0.6593 -0.6898 0.2992
vn -0.4883 -0.8441 0.2216
vn -0.6883 -0.7255 0.0000
vn -0.4555 -0.6704 0.5857
vn -0.8847 -0.4662 0.0000
vn -0.1539 -0.3778 0.9130
vn -1.0000 -0.0000 0.0000
vn 0.1583 -0.3051 0.9391
vn 0.8847 -0.4662 0.0000
vn 0.5311 -0.5017 0.6828
vn 0.6883 -0.7255 0.0000
vn 0.6144 -0.7381 0.2788
vn 0.5345 -0.8451 0.0000
vn -0.9220 -0.3010 0.2436
vn -0.7858 -0.4694 0.4027
vn -0.6263 -0.4723 0.6202
vn -0.3365 -0.5241 0.7824
vn -0.0005 -0.3579 0.9337
vn 0.1038 -0.3277 0.9391
vn 0.3883 -0.0348 0.9209
vn 0.3081 -0.0822 0.9478
vn 0.5849 0.5191 0.6232
vn 0.4420 0.4262 0.7893
vn 0.4516 0.8535 0.2600
vn 0.3264 0.8646 0.3821
vn -0.9307 -0.1322 0.3410
vn -0.7549 -0.3488 0.5554
vn -0.5097 -0.3532 0.7845
vn -0.2000 -0.4207 0.8849
vn 0.0713 -0.2981 0.9519
vn 0.1455 -0.2893 0.9461
vn 0.3277 -0.1038 0.9391
vn 0.2701 -0.1251 0.9547
vn 0.4842 0.3818 0.7873
vn 0.3317 0.2965 0.8956
vn 0.3265 0.8645 0.3821
vn 0.1683 0.8439 0.5094
vn -0.7633 -0.3348 0.5526
vn -0.5917 -0.4601 0.6620
vn -0.2371 -0.3876 0.8908
vn -0.0986 -0.4099 0.9068
vn 0.1314 -0.2761 0.9521
vn 0.1602 -0.2754 0.9479
vn 0.2893 -0.1455 0.9461
vn 0.2648 -0.1490 0.9527
vn 0.4462 0.1701 0.8786
vn 0.3622 0.1534 0.9194
vn 0.4655 0.6741 0.5735
vn 0.3423 0.6830 0.6453
vn -0.5707 -0.4837 0.6636
vn -0.4621 -0.5381 0.7049
vn -0.1093 -0.4008 0.9096
vn -0.0471 -0.4092 0.9112
vn 0.1535 -0.2691 0.9508
vn 0.1665 -0.2694 0.9485
vn 0.2754 -0.1602 0.9479
vn 0.2637 -0.1605 0.9511
vn 0.4281 0.0769 0.9005
vn 0.3846 0.0761 0.9199
vn 0.5498 0.5061 0.6645
vn 0.4765 0.5245 0.7055
vn -0.3969 -0.5949 0.6990
vn -0.3621 -0.6070 0.7074
vn -0.0376 -0.4172 0.9081
vn -0.0200 -0.4189 0.9078
vn 0.1645 -0.2675 0.9494
vn 0.1683 -0.2677 0.9487
vn 0.2694 -0.1665 0.9485
vn 0.2658 -0.1664 0.9496
vn 0.4250 0.0280 0.9047
vn 0.4113 0.0292 0.9110
vn 0.6127 0.3747 0.6959
vn 0.5896 0.3839 0.7106
vn -0.2532 -0.6840 0.6841
vn -0.2856 -0.6770 0.6784
vn 0.0072 -0.4411 0.8974
vn -0.0092 -0.4404 0.8978
vn 0.1702 -0.2695 0.9479
vn 0.1665 -0.2694 0.9485
vn 0.2677 -0.1683 0.9487
vn 0.2713 -0.1684 0.9477
vn 0.4338 0.0018 0.9010
vn 0.4478 -0.0001 0.8941
vn 0.6699 0.2748 0.6897
vn 0.6912 0.2635 0.6729
vn -0.1367 -0.7618 0.6333
vn -0.2270 -0.7535 0.6170
vn 0.0364 -0.4763 0.8785
vn -0.0140 -0.4784 0.8780
vn 0.1724 -0.2750 0.9459
vn 0.1602 -0.2754 0.9479
vn 0.2694 -0.1665 0.9485
vn 0.2816 -0.1668 0.9449
vn 0.4551 -0.0093 0.8904
vn 0.5014 -0.0163 0.8650
vn 0.7296 0.1988 0.6543
vn 0.7867 0.1606 0.5961
vn -0.0390 -0.8344 0.5497
vn -0.1807 -0.8390 0.5132
vn 0.0554 -0.5300 0.8462
vn -0.0404 -0.5463 0.8366
vn 0.1712 -0.2858 0.9429
vn 0.1455 -0.2893 0.9461
vn 0.2754 -0.1602 0.9479
vn 0.3021 -0.1593 0.9399
vn 0.4940 -0.0065 0.8694
vn 0.5872 -0.0197 0.8092
vn 0.7965 0.1387 0.5885
vn 0.8766 0.0697 0.4762
vn 0.0551 -0.9028 0.4266
vn -0.1350 -0.9301 0.3417
vn 0.0698 -0.6186 0.7826
vn -0.1123 -0.6823 0.7224
vn 0.1654 -0.3078 0.9370
vn 0.1038 -0.3277 0.9391
vn 0.2893 -0.1455 0.9461
vn 0.3557 -0.1353 0.9248
vn 0.5653 0.0131 0.8247
vn 0.7427 -0.0062 0.6696
vn 0.8734 0.0809 0.4802
vn 0.9540 -0.0215 0.2992
vn 0.2515 -0.9421 0.2216
vn 0.0263 -0.9997 0.0000
vn 0.1520 -0.7962 0.5857
vn -0.2959 -0.9552 0.0000
vn 0.1583 -0.3759 0.9130
vn -0.7071 -0.7071 0.0000
vn 0.3277 -0.1038 0.9391
vn 0.9552 0.2959 0.0000
vn 0.7303 0.0208 0.6828
vn 0.9997 -0.0263 0.0000
vn 0.9564 -0.0875 0.2788
vn 0.9756 -0.2196 0.0000
vn -0.4391 -0.8648 0.2436
vn -0.2238 -0.8875 0.4027
vn -0.1089 -0.7769 0.6202
vn 0.1326 -0.6085 0.7824
vn 0.2528 -0.2534 0.9337
vn 0.3051 -0.1583 0.9391
vn 0.2992 0.2499 0.9209
vn 0.2760 0.1597 0.9478
vn 0.0465 0.7807 0.6232
vn 0.0112 0.6139 0.7893
vn -0.2842 0.9228 0.2600
vn -0.3805 0.8421 0.3821
vn -0.5646 -0.7516 0.3410
vn -0.2871 -0.7804 0.5554
vn -0.1107 -0.6102 0.7845
vn 0.1561 -0.4389 0.8849
vn 0.2612 -0.1604 0.9519
vn 0.3074 -0.1017 0.9461
vn 0.3051 0.1583 0.9391
vn 0.2795 0.1026 0.9547
vn 0.0724 0.6124 0.7873
vn 0.0249 0.4442 0.8956
vn -0.3804 0.8422 0.3821
vn -0.4777 0.7157 0.5094
vn -0.3030 -0.7765 0.5526
vn -0.0930 -0.7438 0.6620
vn 0.1064 -0.4418 0.8908
vn 0.2201 -0.3596 0.9068
vn 0.2882 -0.1023 0.9521
vn 0.3080 -0.0814 0.9479
vn 0.3074 0.1017 0.9461
vn 0.2926 0.0819 0.9527
vn 0.1952 0.4357 0.8786
vn 0.1477 0.3646 0.9194
vn -0.1475 0.8058 0.5735
vn -0.2409 0.7250 0.6453
vn -0.0616 -0.7456 0.6636
vn 0.0537 -0.7072 0.7049
vn 0.2061 -0.3607 0.9096
vn 0.2561 -0.3227 0.9112
vn 0.2988 -0.0817 0.9508
vn 0.3082 -0.0728 0.9485
vn 0.3080 0.0814 0.9479
vn 0.3000 0.0730 0.9511
vn 0.2483 0.3571 0.9005
vn 0.2182 0.3258 0.9199
vn 0.0309 0.7466 0.6645
vn -0.0339 0.7079 0.7055
vn 0.1400 -0.7013 0.6990
vn 0.1731 -0.6853 0.7074
vn 0.2684 -0.3215 0.9081
vn 0.2821 -0.3104 0.9078
vn 0.3055 -0.0728 0.9494
vn 0.3083 -0.0703 0.9487
vn 0.3082 0.0728 0.9485
vn 0.3056 0.0703 0.9496
vn 0.2807 0.3204 0.9047
vn 0.2702 0.3115 0.9110
vn 0.1683 0.6982 0.6959
vn 0.1454 0.6884 0.7106
vn 0.3046 -0.6627 0.6841
vn 0.2768 -0.6806 0.6784
vn 0.3170 -0.3068 0.8974
vn 0.3049 -0.3179 0.8978
vn 0.3109 -0.0702 0.9479
vn 0.3082 -0.0728 0.9485
vn 0.3083 0.0703 0.9487
vn 0.3109 0.0727 0.9477
vn 0.3055 0.3080 0.9010
vn 0.3167 0.3166 0.8941
vn 0.2794 0.6681 0.6897
vn 0.3025 0.6751 0.6729
vn 0.4420 -0.6353 0.6333
vn 0.3723 -0.6933 0.6170
vn 0.3626 -0.3111 0.8785
vn 0.3284 -0.3482 0.8780
vn 0.3163 -0.0726 0.9459
vn 0.3080 -0.0814 0.9479
vn 0.3082 0.0728 0.9485
vn 0.3171 0.0812 0.9449
vn 0.3284 0.3153 0.8904
vn 0.3661 0.3430 0.8650
vn 0.3753 0.6565 0.6543
vn 0.4427 0.6698 0.5961
vn 0.5624 -0.6176 0.5497
vn 0.4655 -0.7211 0.5132
vn 0.4140 -0.3356 0.8462
vn 0.3578 -0.4149 0.8366
vn 0.3231 -0.0810 0.9429
vn 0.3074 -0.1017 0.9461
vn 0.3080 0.0814 0.9479
vn 0.3263 0.1010 0.9399
vn 0.3539 0.3448 0.8694
vn 0.4292 0.4013 0.8092
vn 0.4652 0.6613 0.5885
vn 0.5705 0.6691 0.4762
vn 0.6773 -0.5994 0.4266
vn 0.5622 -0.7531 0.3417
vn 0.4868 -0.3881 0.7826
vn 0.4030 -0.5619 0.7224
vn 0.3346 -0.1007 0.9370
vn 0.3051 -0.1583 0.9391
vn 0.3074 0.1017 0.9461
vn 0.3472 0.1559 0.9248
vn 0.3905 0.4090 0.8247
vn 0.5296 0.5208 0.6696
vn 0.5603 0.6748 0.4802
vn 0.6898 0.6593 0.2992
vn 0.8441 -0.4883 0.2216
vn 0.7255 -0.6883 0.0000
vn 0.6704 -0.4555 0.5857
vn 0.4662 -0.8847 0.0000
vn 0.3778 -0.1539 0.9130
vn 0.0000 -1.0000 0.0000
vn 0.3051 0.1583 0.9391
vn 0.4662 0.8847 0.0000
vn 0.5017 0.5311 0.6828
vn 0.7255 0.6883 0.0000
vn 0.7381 0.6144 0.2788
vn 0.8451 0.5345 0.0000
vn 0.3010 -0.9220 0.2436
vn 0.4694 -0.7858 0.4027
vn 0.4723 -0.6263 0.6202
vn 0.5241 -0.3365 0.7824
vn 0.3579 -0.0005 0.9337
vn 0.3277 0.1038 0.9391
vn 0.0348 0.3883 0.9209
vn 0.0822 0.3081 0.9478
vn -0.5191 0.5849 0.6232
vn -0.4262 0.4420 0.7893
vn -0.8535 0.4516 0.2600
vn -0.8646 0.3264 0.3821
vn 0.1322 -0.9307 0.3410
vn 0.3488 -0.7549 0.5554
vn 0.3532 -0.5097 0.7845
vn 0.4207 -0.2000 0.8849
vn 0.2981 0.0713 0.9519
vn 0.2893 0.1455 0.9461
vn 0.1038 0.3277 0.9391
vn 0.1251 0.2701 0.9547
vn -0.3818 0.4842 0.7873
vn -0.2965 0.3317 0.8956
vn -0.8645 0.3265 0.3821
vn -0.8439 0.1683 0.5094
vn 0.3348 -0.7633 0.5526
vn 0.4601 -0.5917 0.6620
vn 0.3876 -0.2371 0.8908
vn 0.4099 -0.0986 0.9068
vn 0.2761 0.1314 0.9521
vn 0.2754 0.1602 0.9479
vn 0.1455 0.2893 0.9461
vn 0.1490 0.2648 0.9527
vn -0.1701 0.4462 0.8786
vn -0.1534 0.3622 0.9194
vn -0.6741 0.4655 0.5735
vn -0.6830 0.3423 0.6453
vn 0.4837 -0.5707 0.6636
vn 0.5381 -0.4621 0.7049
vn 0.4008 -0.1093 0.9096
vn 0.4092 -0.0471 0.9112
vn 0.2691 0.1535 0.9508
vn 0.2694 0.1665 0.9485
vn 0.1602 0.2754 0.9479
vn 0.1605 0.2637 0.9511
vn -0.0769 0.4281 0.9005
vn -0.0761 0.3846 0.9199
vn -0.5061 0.5498 0.6645
vn -0.5245 0.4765 0.7055
vn 0.5949 -0.3969 0.6990
vn 0.6070 -0.3621 0.7074
vn 0.4172 -0.0376 0.9081
vn 0.4189 -0.0200 0.9078
vn 0.2675 0.1645 0.9494
vn 0.2677 0.1683 0.9487
vn 0.1665 0.2694 0.9485
vn 0.1664 0.2658 0.9496
vn -0.0280 0.4250 0.9047
vn -0.0292 0.4113 0.9110
vn -0.3747 0.6127 0.6959
vn -0.3839 0.5896 0.7106
vn 0.6840 -0.2532 0.6841
vn 0.6770 -0.2856 0.6784
vn 0.4411 0.0072 0.8974
vn 0.4404 -0.0092 0.8978
vn 0.2695 0.1702 0.9479
vn 0.2694 0.1665 0.9485
vn 0.1683 0.2677 0.9487
vn 0.1684 0.2713 0.9477
vn -0.0018 0.4338 0.9010
vn 0.0001 0.4478 0.8941
vn -0.2748 0.6699 0.6897
vn -0.2635 0.6912 0.6729
vn 0.7618 -0.1367 0.6333
vn 0.7535 -0.2270 0.6170
vn 0.4763 0.0364 0.8785
vn 0.4784 -0.0140 0.8780
vn 0.2750 0.1724 0.9459
vn 0.2754 0.1602 0.9479
vn 0.1665 0.2694 0.9485
vn 0.1668 0.2816 0.9449
vn 0.0093 0.4551 0.8904
vn 0.0163 0.5014 0.8650
vn -0.1988 0.7296 0.6543
vn -0.1606 0.7867 0.5961
vn 0.8344 -0.0390 0.5497
vn 0.8390 -0.1807 0.5132
vn 0.5300 0.0554 0.8462
vn 0.5463 -0.0404 0.8366
vn 0.2858 0.1712 0.9429
vn 0.2893 0.1455 0.9461
vn 0.1602 0.2754 0.9479
vn 0.1593 0.3021 0.9399
vn 0.0065 0.4940 0.8694
vn 0.0197 0.5872 0.8092
vn -0.1387 0.7965 0.5885
vn -0.0697 0.8766 0.4762
vn 0.9028 0.0551 0.4266
vn 0.9301 -0.1350 0.3417
vn 0.6186 0.0698 0.7826
vn 0.6823 -0.1123 0.7224
vn 0.3078 0.1654 0.9370
vn 0.3277 0.1038 0.9391
vn 0.1455 0.2893 0.9461
vn 0.1353 0.3557 0.9248
vn -0.0131 0.5653 0.8247
vn 0.0062 0.7427 0.6696
vn -0.0809 0.8734 0.4802
vn 0.0215 0.9540 0.2992
vn 0.9421 0.2515 0.2216
vn 0.9997 0.0263 0.0000
vn 0.7962 0.1520 0.5857
vn 0.9552 -0.2959 0.0000
vn 0.3759 0.1583 0.9130
vn 0.7071 -0.7071 0.0000
vn 0.1038 0.3277 0.9391
vn -0.2959 0.9552 0.0000
vn -0.0208 0.7303 0.6828
vn 0.0263 0.9997 0.0000
vn 0.0875 0.9564 0.2788
vn 0.2196 0.9756 0.0000
vn 0.8648 -0.4391 0.2436
vn 0.8875 -0.2238 0.4027
vn 0.7769 -0.1089 0.6202
vn 0.6085 0.1326 0.7824
vn 0.2534 0.2528 0.9337
vn 0.1583 0.3051 0.9391
vn -0.2499 0.2992 0.9209
vn -0.1597 0.2760 0.9478
vn -0.7807 0.0465 0.6232
vn -0.6139 0.0112 0.7893
vn -0.9228 -0.2842 0.2600
vn -0.8421 -0.3805 0.3821
vn 0.7516 -0.5646 0.3410
vn 0.7804 -0.2871 0.5554
vn 0.6102 -0.1107 0.7845
vn 0.4389 0.1561 0.8849
vn 0.1604 0.2612 0.9519
vn 0.1017 0.3074 0.9461
vn -0.1583 0.3051 0.9391
vn -0.1026 0.2795 0.9547
vn -0.6124 0.0724 0.7873
vn -0.4442 0.0249 0.8956
vn -0.8422 -0.3804 0.3821
vn -0.7157 -0.4777 0.5094
vn 0.7765 -0.3030 0.5526
vn 0.7438 -0.0930 0.6620
vn 0.4418 0.1064 0.8908
vn 0.3596 0.2201 0.9068
vn 0.1023 0.2882 0.9521
vn 0.0814 0.3080 0.9479
vn -0.1017 0.3074 0.9461
vn -0.0819 0.2926 0.9527
vn -0.4357 0.1952 0.8786
vn -0.3646 0.1477 0.9194
vn -0.8058 -0.1475 0.5735
vn -0.7250 -0.2409 0.6453
vn 0.7456 -0.0616 0.6636
vn 0.7072 0.0537 0.7049
vn 0.3607 0.2061 0.9096
vn 0.3227 0.2561 0.9112
vn 0.0817 0.2988 0.9508
vn 0.0728 0.3082 0.9485
vn -0.0814 0.3080 0.9479
vn -0.0730 0.3000 0.9511
vn -0.3571 0.2483 0.9005
vn -0.3258 0.2182 0.9199
vn -0.7466 0.0309 0.6645
vn -0.7079 -0.0339 0.7055
vn 0.7013 0.1400 0.6990
vn 0.6853 0.1731 0.7074
vn 0.3215 0.2684 0.9081
vn 0.3104 0.2821 0.9078
vn 0.0728 0.3055 0.9494
vn 0.0703 0.3083 0.9487
vn -0.0728 0.3082 0.9485
vn -0.0703 0.3056 0.9496
vn -0.3204 0.2807 0.9047
vn -0.3115 0.2702 0.9110
vn -0.6982 0.1683 0.6959
vn -0.6884 0.1454 0.7106
vn 0.6627 0.3046 0.6841
vn 0.6806 0.2768 0.6784
vn 0.3068 0.3170 0.8974
vn 0.3179 0.3049 0.8978
vn 0.0702 0.3109 0.9479
vn 0.0728 0.3082 0.9485
vn -0.0703 0.3083 0.9487
vn -0.0727 0.3109 0.9477
vn -0.3080 0.3055 0.9010
vn -0.3166 0.3167 0.8941
vn -0.6681 0.2794 0.6897
vn -0.6751 0.3025 0.6729
vn 0.6353 0.4420 0.6333
vn 0.6933 0.3723 0.6170
vn 0.3111 0.3626 0.8785
vn 0.3482 0.3284 0.8780
vn 0.0726 0.3163 0.9459
vn 0.0814 0.3080 0.9479
vn -0.0728 0.3082 0.9485
vn -0.0812 0.3171 0.9449
vn -0.3153 0.3284 0.8904
vn -0.3430 0.3661 0.8650
vn -0.6565 0.3753 0.6543
vn -0.6698 0.4427 0.5961
vn 0.6176 0.5624 0.5497
vn 0.7211 0.4655 0.5132
vn 0.3356 0.4140 0.8462
vn 0.4149 0.3578 0.8366
vn 0.0810 0.3231 0.9429
vn 0.1017 0.3074 0.9461
vn -0.0814 0.3080 0.9479
vn -0.1010 0.3263 0.9399
vn -0.3448 0.3539 0.8694
vn -0.4013 0.4292 0.8092
vn -0.6613 0.4652 0.5885
vn -0.6691 0.5705 0.4762
vn 0.5994 0.6773 0.4266
vn 0.7531 0.5622 0.3417
vn 0.3881 0.4868 0.7826
vn 0.5619 0.4030 0.7224
vn 0.1007 0.3346 0.9370
vn 0.1583 0.3051 0.9391
vn -0.1017 0.3074 0.9461
vn -0.1559 0.3472 0.9248
vn -0.4090 0.3905 0.8247
vn -0.5208 0.5296 0.6696
vn -0.6748 0.5603 0.4802
vn -0.6593 0.6898 0.2992
vn 0.4883 0.8441 0.2216
vn 0.6883 0.7255 0.0000
vn 0.4555 0.6704 0.5857
vn 0.8847 0.4662 0.0000
vn 0.1539 0.3778 0.9130
vn 1.0000 0.0000 0.0000
vn -0.1583 0.3051 0.9391
vn -0.8847 0.4662 0.0000
vn -0.5311 0.5017 0.6828
vn -0.6883 0.7255 0.0000
vn -0.6144 0.7381 0.2788
vn -0.5345 0.8451 0.0000
vn 0.9220 0.3010 0.2436
vn 0.7858 0.4694 0.4027
vn 0.6263 0.4723 0.6202
vn 0.3365 0.5241 0.7824
vn 0.0005 0.3579 0.9337
vn -0.1038 0.3277 0.9391
vn -0.3883 0.0348 0.9209
vn -0.3081 0.0822 0.9478
vn -0.5849 -0.5191 0.6232
vn -0.4420 -0.4262 0.7893
vn -0.4516 -0.8535 0.2600
vn -0.3264 -0.8646 0.3821
vn 0.9307 0.1322 0.3410
vn 0.7549 0.3488 0.5554
vn 0.5097 0.3532 0.7845
vn 0.2000 0.4207 0.8849
vn -0.0713 0.2981 0.9519
vn -0.1455 0.2893 0.9461
vn -0.3277 0.1038 0.9391
vn -0.2701 0.1251 0.9547
vn -0.4842 -0.3818 0.7873
vn -0.3317 -0.2965 0.8956
vn -0.3265 -0.8645 0.3821
vn -0.1683 -0.8439 0.5094
vn 0.7633 0.3348 0.5526
vn 0.5917 0.4601 0.6620
vn 0.2371 0.3876 0.8908
vn 0.0986 0.4099 0.9068
vn -0.1314 0.2761 0.9521
vn -0.1602 0.2754 0.9479
vn -0.2893 0.1455 0.9461
vn -0.2648 0.1490 0.9527
vn -0.4462 -0.1701 0.8786
vn -0.3622 -0.1534 0.9194
vn -0.4655 -0.6741 0.5735
vn -0.3423 -0.6830 0.6453
vn 0.5707 0.4837 0.6636
vn 0.4621 0.5381 0.7049
vn 0.1093 0.4008 0.9096
vn 0.0471 0.4092 0.9112
vn -0.1535 0.2691 0.9508
vn -0.1665 0.2694 0.9485
vn -0.2754 0.1602 0.9479
vn -0.2637 0.1605 0.9511
vn -0.4281 -0.0769 0.9005
vn -0.3846 -0.0761 0.9199
vn -0.5498 -0.5061 0.6645
vn -0.4765 -0.5245 0.7055
vn 0.3969 0.5949 0.6990
vn 0.3621 0.6070 0.7074
vn 0.0376 0.4172 0.9081
vn 0.0200 0.4189 0.9078
vn -0.1645 0.2675 0.9494
vn -0.1683 0.2677 0.9487
vn -0.2694 0.1665 0.9485
vn -0.2658 0.1664 0.9496
vn -0.4250 -0.0280 0.9047
vn -0.4113 -0.0292 0.9110
vn -0.6127 -0.3747 0.6959
vn -0.5896 -0.3839 0.7106
vn 0.2532 0.6840 0.6841
vn 0.2856 0.6770 0.6784
vn -0.0072 0.4411 0.8974
vn 0.0092 0.4404 0.8978
vn -0.1702 0.2695 0.9479
vn -0.1665 0.2694 0.9485
vn -0.2677 0.1683 0.9487
vn -0.2713 0.1684 0.9477
vn -0.4338 -0.0018 0.9010
vn -0.4478 0.0001 0.8941
vn -0.6699 -0.2748 0.6897
vn -0.6912 -0.2635 0.6729
vn 0.1367 0.7618 0.6333
vn 0.2270 0.7535 0.6170
vn -0.0364 0.4763 0.8785
vn 0.0140 0.4784 0.8780
vn -0.1724 0.2750 0.9459
vn -0.1602 0.2754 0.9479
vn -0.2694 0.1665 0.9485
vn -0.2816 0.1668 0.9449
vn -0.4551 0.0093 0.8904
vn -0.5014 0.0163 0.8650
vn -0.7296 -0.1988 0.6543
vn -0.7867 -0.1606 0.5961
vn 0.0390 0.8344 0.5497
vn 0.1807 0.8390 0.5132
vn -0.0554 0.5300 0.8462
vn 0.0404 0.5463 0.8366
vn -0.1712 0.2858 0.9429
vn -0.1455 0.2893 0.9461
vn -0.2754 0.1602 0.9479
vn -0.3021 0.1593 0.9399
vn -0.4940 0.0065 0.8694
vn -0.5872 0.0197 0.8092
vn -0.7965 -0.1387 0.5885
vn -0.8766 -0.0697 0.4762
vn -0.0551 0.9028 0.4266
vn 0.1350 0.9301 0.3417
vn -0.0698 0.6186 0.7826
vn 0.1123 0.6823 0.7224
vn -0.1654 0.3078 0.9370
vn -0.1038 0.3277 0.9391
vn -0.2893 0.1455 0.9461
vn -0.3557 0.1353 0.9248
vn -0.5653 -0.0131 0.8247
vn -0.7427 0.0062 0.6696
vn -0.8734 -0.0809 0.4802
vn -0.9540 0.0215 0.2992
vn -0.2515 0.9421 0.2216
vn -0.0263 0.9997 0.0000
vn -0.1520 0.7962 0.5857
vn 0.2959 0.9552 0.0000
vn -0.1583 0.3759 0.9130
vn 0.7071 0.7071 0.0000
vn -0.3277 0.1038 0.9391
vn -0.9552 -0.2959 0.0000
vn -0.7303 -0.0208 0.6828
vn -0.9997 0.0263 0.0000
vn -0.9564 0.0875 0.2788
vn -0.9756 0.2196 0.0000
f 1//1 33//1 2//1
f 2//2 33//2 34//2
f 1//3 2//3 65//3
f 2//4 66//4 65//4
f 2//5 34//5 3//5
f 3//6 34//6 35//6
f 2//7 3//7 66//7
f 3//8 67//8 66//8
f 3//9 35//9 4//9
f 4//10 35//10 36//10
f 3//11 4//11 67//11
f 4//12 68//12 67//12
f 4//13 36//13 5//13
f 5//14 36//14 37//14
f 4//15 5//15 68//15
f 5//16 69//16 68//16
f 5//17 37//17 6//17
f 6//18 37//18 38//18
f 5//19 6//19 69//19
f 6//20 70//20 69//20
f 6//21 38//21 7//21
f 7//22 38//22 39//22
f 6//23 7//23 70//23
f 7//24 71//24 70//24
f 7//25 39//25 8//25
f 8//26 39//26 40//26
f 7//27 8//27 71//27
f 8//28 72//28 71//28
f 8//29 40//29 9//29
f 9//30 40//30 41//30
f 8//31 9//31 72//31
f 9//32 73//32 72//32
f 9//33 41//33 10//33
f 10//34 41//34 42//34
f 9//35 10//35 73//35
f 10//36 74//36 73//36
f 10//37 42//37 11//37
f 11//38 42//38 43//38
f 10//39 11//39 74//39
f 11//40 75//40 74//40
f 11//41 43//41 12//41
f 12//42 43//42 44//42
f 11//43 12//43 75//43
f 12//44 76//44 75//44
f 12//45 44//45 13//45
f 13//46 44//46 45//46
f 12//47 13//47 76//47
f 13//48 77//48 76//48
f 13//49 45//49 14//49
f 14//50 45//50 46//50
f 13//51 14//51 77//51
f 14//52 78//52 77//52
f 14//53 46//53 15//53
f 15//54 46//54 47//54
f 14//55 15//55 78//55
f 15//56 79//56 78//56
f 15//57 47//57 16//57
f 16//58 47//58 48//58
f 15//59 16//59 79//59
f 16//60 80//60 79//60
f 16//61 48//61 17//61
f 17//62 48//62 49//62
f 16//63 17//63 80//63
f 17//64 81//64 80//64
f 17//65 49//65 18//65
f 18//66 49//66 50//66
f 17//67 18//67 81//67
f 18//68 82//68 81//68
f 18//69 50//69 19//69
f 19//70 50//70 51//70
f 18//71 19//71 82//71
f 19//72 83//72 82//72
f 19//73 51//73 20//73
f 20//74 51//74 52//74
f 19//75 20//75 83//75
f 20//76 84//76 83//76
f 20//77 52//77 21//77
f 21//78 52//78 53//78
f 20//79 21//79 84//79
f 21//80 85//80 84//80
f 21//81 53//81 22//81
f 22//82 53//82 54//82
f 21//83 22//83 85//83
f 22//84 86//84 85//84
f 22//85 54//85 23//85
f 23//86 54//86 55//86
f 22//87 23//87 86//87
f 23//88 87//88 86//88
f 23//89 55//89 24//89
f 24//90 55//90 56//90
f 23//91 24//91 87//91
f 24//92 88//92 87//92
f 24//93 56//93 25//93
f 25//94 56//94 57//94
f 24//95 25//95 88//95
f 25//96 89//96 88//96
f 25//97 57//97 26//97
f 26//98 57//98 58//98
f 25//99 26//99 89//99
f 26//100 90//100 89//100
f 26//101 58//101 27//101
f 27//102 58//102 59//102
f 26//103 27//103 90//103
f 27//104 91//104 90//104
f 27//105 59//105 28//105
f 28//106 59//106 60//106
f 27//107 28//107 91//107
f 28//108 92//108 91//108
f 28//109 60//109 29//109
f 29//110 60//110 61//110
f 28//111 29//111 92//111
f 29//112 93//112 92//112
f 29//113 61//113 30//113
f 30//114 61//114 62//114
f 29//115 30//115 93//115
f 30//116 94//116 93//116
f 30//117 62//117 31//117
f 31//118 62//118 63//118
f 30//119 31//119 94//119
f 31//120 95//120 94//120
f 31//121 63//121 32//121
f 32//122 63//122 64//122
f 31//123 32//123 95//123
f 32//124 96//124 95//124
f 32//125 64//125 1//125
f 1//126 64//126 33//126
f 32//127 1//127 96//127
f 1//128 65//128 96//128
f 97//129 98//129 99//129
f 97//130 99//130 100//130
f 97//131 100//131 101//131
f 97//132 101//132 102//132
f 97//133 102//133 103//133
f 97//134 103//134 104//134
f 97//135 104//135 105//135
f 97//136 105//136 98//136
f 106//137 113//137 107//137
f 107//138 113//138 114//138
f 107//139 114//139 108//139
f 108//140 114//140 115//140
f 108//141 115//141 109//141
f 109//142 115//142 116//142
f 109//143 116//143 110//143
f 110//144 116//144 117//144
f 110//145 117//145 111//145
f 111//146 117//146 118//146
f 111//147 118//147 112//147
f 112//148 118//148 119//148
f 113//149 120//149 114//149
f 114//150 120//150 121//150
f 114//151 121//151 115//151
f 115//152 121//152 122//152
f 115//153 122//153 116//153
f 116//154 122//154 123//154
f 116//155 123//155 117//155
f 117//156 123//156 124//156
f 117//157 124//157 118//157
f 118//158 124//158 125//158
f 118//159 125//159 119//159
f 119//160 125//160 126//160
f 120//161 127//161 121//161
f 121//162 127//162 128//162
f 121//163 128//163 122//163
f 122//164 128//164 129//164
f 122//165 129//165 123//165
f 123//166 129//166 130//166
f 123//167 130//167 124//167
f 124//168 130//168 131//168
f 124//169 131//169 125//169
f 125//170 131//170 132//170
f 125//171 132//171 126//171
f 126//172 132//172 133//172
f 127//173 134//173 128//173
f 128//174 134//174 135//174
f 128//175 135//175 129//175
f 129//176 135//176 136//176
f 129//177 136//177 130//177
f 130//178 136//178 137//178
f 130//179 137//179 131//179
f 131//180 137//180 138//180
f 131//181 138//181 132//181
f 132//182 138//182 139//182
f 132//183 139//183 133//183
f 133//184 139//184 140//184
f 134//185 141//185 135//185
f 135//186 141//186 142//186
f 135//187 142//187 136//187
f 136//188 142//188 143//188
f 136//189 143//189 137//189
f 137//190 143//190 144//190
f 137//191 144//191 138//191
f 138//192 144//192 145//192
f 138//193 145//193 139//193
f 139//194 145//194 146//194
f 139//195 146//195 140//195
f 140//196 146//196 147//196
f 141//197 148//197 142//197
f 142//198 148//198 149//198
f 142//199 149//199 143//199
f 143//200 149//200 150//200
f 143//201 150//201 144//201
f 144//202 150//202 151//202
f 144//203 151//203 145//203
f 145//204 151//204 152//204
f 145//205 152//205 146//205
f 146//206 152//206 153//206
f 146//207 153//207 147//207
f 147//208 153//208 154//208
f 148//209 155//209 149//209
f 149//210 155//210 156//210
f 149//211 156//211 150//211
f 150//212 156//212 157//212
f 150//213 157//213 151//213
f 151//214 157//214 158//214
f 151//215 158//215 152//215
f 152//216 158//216 159//216
f 152//217 159//217 153//217
f 153//218 159//218 160//218
f 153//219 160//219 154//219
f 154//220 160//220 161//220
f 155//221 162//221 156//221
f 156//222 162//222 163//222
f 156//223 163//223 157//223
f 157//224 163//224 164//224
f 157//225 164//225 158//225
f 158//226 164//226 165//226
f 158//227 165//227 159//227
f 159//228 165//228 166//228
f 159//229 166//229 160//229
f 160//230 166//230 167//230
f 160//231 167//231 161//231
f 161//232 167//232 168//232
f 162//233 169//233 163//233
f 163//234 169//234 170//234
f 163//235 170//235 164//235
f 164//236 170//236 171//236
f 164//237 171//237 165//237
f 165//238 171//238 172//238
f 165//239 172//239 166//239
f 166//240 172//240 173//240
f 166//241 173//241 167//241
f 167//242 173//242 174//242
f 167//243 174//243 168//243
f 168//244 174//244 175//244
f 169//245 176//245 170//245
f 170//246 176//246 177//246
f 170//247 177//247 171//247
f 171//248 177//248 178//248
f 171//249 178//249 172//249
f 172//250 178//250 179//250
f 172//251 179//251 173//251
f 173//252 179//252 180//252
f 173//253 180//253 174//253
f 174//254 180//254 181//254
f 174//255 181//255 175//255
f 175//256 181//256 182//256
f 183//257 190//257 184//257
f 184//258 190//258 191//258
f 184//259 191//259 185//259
f 185//260 191//260 192//260
f 185//261 192//261 186//261
f 186//262 192//262 193//262
f 186//263 193//263 187//263
f 187//264 193//264 194//264
f 187//265 194//265 188//265
f 188//266 194//266 195//266
f 188//267 195//267 189//267
f 189//268 195//268 196//268
f 190//269 197//269 191//269
f 191//270 197//270 198//270
f 191//271 198//271 192//271
f 192//272 198//272 199//272
f 192//273 199//273 193//273
f 193//274 199//274 200//274
f 193//275 200//275 194//275
f 194//276 200//276 201//276
f 194//277 201//277 195//277
f 195//278 201//278 202//278
f 195//279 202//279 196//279
f 196//280 202//280 203//280
f 197//281 204//281 198//281
f 198//282 204//282 205//282
f 198//283 205//283 199//283
f 199//284 205//284 206//284
f 199//285 206//285 200//285
f 200//286 206//286 207//286
f 200//287 207//287 201//287
f 201//288 207//288 208//288
f 201//289 208//289 202//289
f 202//290 208//290 209//290
f 202//291 209//291 203//291
f 203//292 209//292 210//292
f 204//293 211//293 205//293
f 205//294 211//294 212//294
f 205//295 212//295 206//295
f 206//296 212//296 213//296
f 206//297 213//297 207//297
f 207//298 213//298 214//298
f 207//299 214//299 208//299
f 208//300 214//300 215//300
f 208//301 215//301 209//301
f 209//302 215//302 216//302
f 209//303 216//303 210//303
f 210//304 216//304 217//304
f 211//305 218//305 212//305
f 212//306 218//306 219//306
f 212//307 219//307 213//307
f 213//308 219//308 220//308
f 213//309 220//309 214//309
f 214//310 220//310 221//310
f 214//311 221//311 215//311
f 215//312 221//312 222//312
f 215//313 222//313 216//313
f 216//314 222//314 223//314
f 216//315 223//315 217//315
f 217//316 223//316 224//316
f 218//317 225//317 219//317
f 219//318 225//318 226//318
f 219//319 226//319 220//319
f 220//320 226//320 227//320
f 220//321 227//321 221//321
f 221//322 227//322 228//322
f 221//323 228//323 222//323
f 222//324 228//324 229//324
f 222//325 229//325 223//325
f 223//326 229//326 230//326
f 223//327 230//327 224//327
f 224//328 230//328 231//328
f 225//329 232//329 226//329
f 226//330 232//330 233//330
f 226//331 233//331 227//331
f 227//332 233//332 234//332
f 227//333 234//333 228//333
f 228//334 234//334 235//334
f 228//335 235//335 229//335
f 229//336 235//336 236//336
f 229//337 236//337 230//337
f 230//338 236//338 237//338
f 230//339 237//339 231//339
f 231//340 237//340 238//340
f 232//341 239//341 233//341
f 233//342 239//342 240//342
f 233//343 240//343 234//343
f 234//344 240//344 241//344
f 234//345 241//345 235//345
f 235//346 241//346 242//346
f 235//347 242//347 236//347
f 236//348 242//348 243//348
f 236//349 243//349 237//349
f 237//350 243//350 244//350
f 237//351 244//351 238//351
f 238//352 244//352 245//352
f 239//353 246//353 240//353
f 240//354 246//354 247//354
f 240//355 247//355 241//355
f 241//356 247//356 248//356
f 241//357 248//357 242//357
f 242//358 248//358 249//358
f 242//359 249//359 243//359
f 243//360 249//360 250//360
f 243//361 250//361 244//361
f 244//362 250//362 251//362
f 244//363 251//363 245//363
f 245//364 251//364 252//364
f 246//365 253//365 247//365
f 247//366 253//366 254//366
f 247//367 254//367 248//367
f 248//368 254//368 255//368
f 248//369 255//369 249//369
f 249//370 255//370 256//370
f 249//371 256//371 250//371
f 250//372 256//372 257//372
f 250//373 257//373 251//373
f 251//374 257//374 258//374
f 251//375 258//375 252//375
f 252//376 258//376 259//376
f 260//377 267//377 261//377
f 261//378 267//378 268//378
f 261//379 268//379 262//379
f 262//380 268//380 269//380
f 262//381 269//381 263//381
f 263//382 269//382 270//382
f 263//383 270//383 264//383
f 264//384 270//384 271//384
f 264//385 271//385 265//385
f 265//386 271//386 272//386
f 265//387 272//387 266//387
f 266//388 272//388 273//388
f 267//389 274//389 268//389
f 268//390 274//390 275//390
f 268//391 275//391 269//391
f 269//392 275//392 276//392
f 269//393 276//393 270//393
f 270//394 276//394 277//394
f 270//395 277//395 271//395
f 271//396 277//396 278//396
f 271//397 278//397 272//397
f 272//398 278//398 279//398
f 272//399 279//399 273//399
f 273//400 279//400 280//400
f 274//401 281//401 275//401
f 275//402 281//402 282//402
f 275//403 282//403 276//403
f 276//404 282//404 283//404
f 276//405 283//405 277//405
f 277//406 283//406 284//406
f 277//407 284//407 278//407
f 278//408 284//408 285//408
f 278//409 285//409 279//409
f 279//410 285//410 286//410
f 279//411 286//411 280//411
f 280//412 286//412 287//412
f 281//413 288//413 282//413
f 282//414 288//414 289//414
f 282//415 289//415 283//415
f 283//416 289//416 290//416
f 283//417 290//417 284//417
f 284//418 290//418 291//418
f 284//419 291//419 285//419
f 285//420 291//420 292//420
f 285//421 292//421 286//421
f 286//422 292//422 293//422
f 286//423 293//423 287//423
f 287//424 293//424 294//424
f 288//425 295//425 289//425
f 289//426 295//426 296//426
f 289//427 296//427 290//427
f 290//428 296//428 297//428
f 290//429 297//429 291//429
f 291//430 297//430 298//430
f 291//431 298//431 292//431
f 292//432 298//432 299//432
f 292//433 299//433 293//433
f 293//434 299//434 300//434
f 293//435 300//435 294//435
f 294//436 300//436 301//436
f 295//437 302//437 296//437
f 296//438 302//438 303//438
f 296//439 303//439 297//439
f 297//440 303//440 304//440
f 297//441 304//441 298//441
f 298//442 304//442 305//442
f 298//443 305//443 299//443
f 299//444 305//444 306//444
f 299//445 306//445 300//445
f 300//446 306//446 307//446
f 300//447 307//447 301//447
f 301//448 307//448 308//448
f 302//449 309//449 303//449
f 303//450 309//450 310//450
f 303//451 310//451 304//451
f 304//452 310//452 311//452
f 304//453 311//453 305//453
f 305//454 311//454 312//454
f 305//455 312//455 306//455
f 306//456 312//456 313//456
f 306//457 313//457 307//457
f 307//458 313//458 314//458
f 307//459 314//459 308//459
f 308//460 314//460 315//460
f 309//461 316//461 310//461
f 310//462 316//462 317//462
f 310//463 317//463 311//463
f 311//464 317//464 318//464
f 311//465 318//465 312//465
f 312//466 318//466 319//466
f 312//467 319//467 313//467
f 313//468 319//468 320//468
f 313//469 320//469 314//469
f 314//470 320//470 321//470
f 314//471 321//471 315//471
f 315//472 321//472 322//472
f 316//473 323//473 317//473
f 317//474 323//474 324//474
f 317//475 324//475 318//475
f 318//476 324//476 325//476
f 318//477 325//477 319//477
f 319//478 325//478 326//478
f 319//479 326//479 320//479
f 320//480 326//480 327//480
f 320//481 327//481 321//481
f 321//482 327//482 328//482
f 321//483 328//483 322//483
f 322//484 328//484 329//484
f 323//485 330//485 324//485
f 324//486 330//486 331//486
f 324//487 331//487 325//487
f 325//488 331//488 332//488
f 325//489 332//489 326//489
f 326//490 332//490 333//490
f 326//491 333//491 327//491
f 327//492 333//492 334//492
f 327//493 334//493 328//493
f 328//494 334//494 335//494
f 328//495 335//495 329//495
f 329//496 335//496 336//496
f 337//497 344//497 338//497
f 338//498 344//498 345//498
f 338//499 345//499 339//499
f 339//500 345//500 346//500
f 339//501 346//501 340//501
f 340//502 346//502 347//502
f 340//503 347//503 341//503
f 341//504 347//504 348//504
f 341//505 348//505 342//505
f 342//506 348//506 349//506
f 342//507 349//507 343//507
f 343//508 349//508 350//508
f 344//509 351//509 345//509
f 345//510 351//510 352//510
f 345//511 352//511 346//511
f 346//512 352//512 353//512
f 346//513 353//513 347//513
f 347//514 353//514 354//514
f 347//515 354//515 348//515
f 348//516 354//516 355//516
f 348//517 355//517 349//517
f 349//518 355//518 356//518
f 349//519 356//519 350//519
f 350//520 356//520 357//520
f 351//521 358//521 352//521
f 352//522 358//522 359//522
f 352//523 359//523 353//523
f 353//524 359//524 360//524
f 353//525 360//525 354//525
f 354//526 360//526 361//526
f 354//527 361//527 355//527
f 355//528 361//528 362//528
f 355//529 362//529 356//529
f 356//530 362//530 363//530
f 356//531 363//531 357//531
f 357//532 363//532 364//532
f 358//533 365//533 359//533
f 359//534 365//534 366//534
f 359//535 366//535 360//535
f 360//536 366//536 367//536
f 360//537 367//537 361//537
f 361//538 367//538 368//538
f 361//539 368//539 362//539
f 362//540 368//540 369//540
f 362//541 369//541 363//541
f 363//542 369//542 370//542
f 363//543 370//543 364//543
f 364//544 370//544 371//544
f 365//545 372//545 366//545
f 366//546 372//546 373//546
f 366//547 373//547 367//547
f 367//548 373//548 374//548
f 367//549 374//549 368//549
f 368//550 374//550 375//550
f 368//551 375//551 369//551
f 369//552 375//552 376//552
f 369//553 376//553 370//553
f 370//554 376//554 377//554
f 370//555 377//555 371//555
f 371//556 377//556 378//556
f 372//557 379//557 373//557
f 373//558 379//558 380//558
f 373//559 380//559 374//559
f 374//560 380//560 381//560
f 374//561 381//561 375//561
f 375//562 381//562 382//562
f 375//563 382//563 376//563
f 376//564 382//564 383//564
f 376//565 383//565 377//565
f 377//566 383//566 384//566
f 377//567 384//567 378//567
f 378//568 384//568 385//568
f 379//569 386//569 380//569
f 380//570 386//570 387//570
f 380//571 387//571 381//571
f 381//572 387//572 388//572
f 381//573 388//573 382//573
f 382//574 388//574 389//574
f 382//575 389//575 383//575
f 383//576 389//576 390//576
f 383//577 390//577 384//577
f 384//578 390//578 391//578
f 384//579 391//579 385//579
f 385//580 391//580 392//580
f 386//581 393//581 387//581
f 387//582 393//582 394//582
f 387//583 394//583 388//583
f 388//584 394//584 395//584
f 388//585 395//585 389//585
f 389//586 395//586 396//586
f 389//587 396//587 390//587
f 390//588 396//588 397//588
f 390//589 397//589 391//589
f 391//590 397//590 398//590
f 391//591 398//591 392//591
f 392//592 398//592 399//592
f 393//593 400//593 394//593
f 394//594 400//594 401//594
f 394//595 401//595 395//595
f 395//596 401//596 402//596
f 395//597 402//597 396//597
f 396//598 402//598 403//598
f 396//599 403//599 397//599
f 397//600 403//600 404//600
f 397//601 404//601 398//601
f 398//602 404//602 405//602
f 398//603 405//603 399//603
f 399//604 405//604 406//604
f 400//605 407//605 401//605
f 401//606 407//606 408//606
f 401//607 408//607 402//607
f 402//608 408//608 409//608
f 402//609 409//609 403//609
f 403//610 409//610 410//610
f 403//611 410//611 404//611
f 404//612 410//612 411//612
f 404//613 411//613 405//613
f 405//614 411//614 412//614
f 405//615 412//615 406//615
f 406//616 412//616 413//616
f 414//617 421//617 415//617
f 415//618 421//618 422//618
f 415//619 422//619 416//619
f 416//620 422//620 423//620
f 416//621 423//621 417//621
f 417//622 423//622 424//622
f 417//623 424//623 418//623
f 418//624 424//624 425//624
f 418//625 425//625 419//625
f 419//626 425//626 426//626
f 419//627 426//627 420//627
f 420//628 426//628 427//628
f 421//629 428//629 422//629
f 422//630 428//630 429//630
f 422//631 429//631 423//631
f 423//632 429//632 430//632
f 423//633 430//633 424//633
f 424//634 430//634 431//634
f 424//635 431//635 425//635
f 425//636 431//636 432//636
f 425//637 432//637 426//637
f 426//638 432//638 433//638
f 426//639 433//639 427//639
f 427//640 433//640 434//640
f 428//641 435//641 429//641
f 429//642 435//642 436//642
f 429//643 436//643 430//643
f 430//644 436//644 437//644
f 430//645 437//645 431//645
f 431//646 437//646 438//646
f 431//647 438//647 432//647
f 432//648 438//648 439//648
f 432//649 439//649 433//649
f 433//650 439//650 440//650
f 433//651 440//651 434//651
f 434//652 440//652 441//652
f 435//653 442//653 436//653
f 436//654 442//654 443//654
f 436//655 443//655 437//655
f 437//656 443//656 444//656
f 437//657 444//657 438//657
f 438//658 444//658 445//658
f 438//659 445//659 439//659
f 439//660 445//660 446//660
f 439//661 446//661 440//661
f 440//662 446//662 447//662
f 440//663 447//663 441//663
f 441//664 447//664 448//664
f 442//665 449//665 443//665
f 443//666 449//666 450//666
f 443//667 450//667 444//667
f 444//668 450//668 451//668
f 444//669 451//669 445//669
f 445//670 451//670 452//670
f 445//671 452//671 446//671
f 446//672 452//672 453//672
f 446//673 453//673 447//673
f 447//674 453//674 454//674
f 447//675 454//675 448//675
f 448//676 454//676 455//676
f 449//677 456//677 450//677
f 450//678 456//678 457//678
f 450//679 457//679 451//679
f 451//680 457//680 458//680
f 451//681 458//681 452//681
f 452//682 458//682 459//682
f 452//683 459//683 453//683
f 453//684 459//684 460//684
f 453//685 460//685 454//685
f 454//686 460//686 461//686
f 454//687 461//687 455//687
f 455//688 461//688 462//688
f 456//689 463//689 457//689
f 457//690 463//690 464//690
f 457//691 464//691 458//691
f 458//692 464//692 465//692
f 458//693 465//693 459//693
f 459//694 465//694 466//694
f 459//695 466//695 460//695
f 460//696 466//696 467//696
f 460//697 467//697 461//697
f 461//698 467//698 468//698
f 461//699 468//699 462//699
f 462//700 468//700 469//700
f 463//701 470//701 464//701
f 464//702 470//702 471//702
f 464//703 471//703 465//703
f 465//704 471//704 472//704
f 465//705 472//705 466//705
f 466//706 472//706 473//706
f 466//707 473//707 467//707
f 467//708 473//708 474//708
f 467//709 474//709 468//709
f 468//710 474//710 475//710
f 468//711 475//711 469//711
f 469//712 475//712 476//712
f 470//713 477//713 471//713
f 471//714 477//714 478//714
f 471//715 478//715 472//715
f 472//716 478//716 479//716
f 472//717 479//717 473//717
f 473//718 479//718 480//718
f 473//719 480//719 474//719
f 474//720 480//720 481//720
f 474//721 481//721 475//721
f 475//722 481//722 482//722
f 475//723 482//723 476//723
f 476//724 482//724 483//724
f 477//725 484//725 478//725
f 478//726 484//726 485//726
f 478//727 485//727 479//727
f 479//728 485//728 486//728
f 479//729 486//729 480//729
f 480//730 486//730 487//730
f 480//731 487//731 481//731
f 481//732 487//732 488//732
f 481//733 488//733 482//733
f 482//734 488//734 489//734
f 482//735 489//735 483//735
f 483//736 489//736 490//736
f 491//737 498//737 492//737
f 492//738 498//738 499//738
f 492//739 499//739 493//739
f 493//740 499//740 500//740
f 493//741 500//741 494//741
f 494//742 500//742 501//742
f 494//743 501//743 495//743
f 495//744 501//744 502//744
f 495//745 502//745 496//745
f 496//746 502//746 503//746
f 496//747 503//747 497//747
f 497//748 503//748 504//748
f 498//749 505//749 499//749
f 499//750 505//750 506//750
f 499//751 506//751 500//751
f 500//752 506//752 507//752
f 500//753 507//753 501//753
f 501//754 507//754 508//754
f 501//755 508//755 502//755
f 502//756 508//756 509//756
f 502//757 509//757 503//757
f 503//758 509//758 510//758
f 503//759 510//759 504//759
f 504//760 510//760 511//760
f 505//761 512//761 506//761
f 506//762 512//762 513//762
f 506//763 513//763 507//763
f 507//764 513//764 514//764
f 507//765 514//765 508//765
f 508//766 514//766 515//766
f 508//767 515//767 509//767
f 509//768 515//768 516//768
f 509//769 516//769 510//769
f 510//770 516//770 517//770
f 510//771 517//771 511//771
f 511//772 517//772 518//772
f 512//773 519//773 513//773
f 513//774 519//774 520//774
f 513//775 520//775 514//775
f 514//776 520//776 521//776
f 514//777 521//777 515//777
f 515//778 521//778 522//778
f 515//779 522//779 516//779
f 516//780 522//780 523//780
f 516//781 523//781 517//781
f 517//782 523//782 524//782
f 517//783 524//783 518//783
f 518//784 524//784 525//784
f 519//785 526//785 520//785
f 520//786 526//786 527//786
f 520//787 527//787 521//787
f 521//788 527//788 528//788
f 521//789 528//789 522//789
f 522//790 528//790 529//790
f 522//791 529//791 523//791
f 523//792 529//792 530//792
f 523//793 530//793 524//793
f 524//794 530//794 531//794
f 524//795 531//795 525//795
f 525//796 531//796 532//796
f 526//797 533//797 527//797
f 527//798 533//798 534//798
f 527//799 534//799 528//799
f 528//800 534//800 535//800
f 528//801 535//801 529//801
f 529//802 535//802 536//802
f 529//803 536//803 530//803
f 530//804 536//804 537//804
f 530//805 537//805 531//805
f 531//806 537//806 538//806
f 531//807 538//807 532//807
f 532//808 538//808 539//808
f 533//809 540//809 534//809
f 534//810 540//810 541//810
f 534//811 541//811 535//811
f 535//812 541//812 542//812
f 535//813 542//813 536//813
f 536//814 542//814 543//814
f 536//815 543//815 537//815
f 537//816 543//816 544//816
f 537//817 544//817 538//817
f 538//818 544//818 545//818
f 538//819 545//819 539//819
f 539//820 545//820 546//820
f 540//821 547//821 541//821
f 541//822 547//822 548//822
f 541//823 548//823 542//823
f 542//824 548//824 549//824
f 542//825 549//825 543//825
f 543//826 549//826 550//826
f 543//827 550//827 544//827
f 544//828 550//828 551//828
f 544//829 551//829 545//829
f 545//830 551//830 552//830
f 545//831 552//831 546//831
f 546//832 552//832 553//832
f 547//833 554//833 548//833
f 548//834 554//834 555//834
f 548//835 555//835 549//835
f 549//836 555//836 556//836
f 549//837 556//837 550//837
f 550//838 556//838 557//838
f 550//839 557//839 551//839
f 551//840 557//840 558//840
f 551//841 558//841 552//841
f 552//842 558//842 559//842
f 552//843 559//843 553//843
f 553//844 559//844 560//844
f 554//845 561//845 555//845
f 555//846 561//846 562//846
f 555//847 562//847 556//847
f 556//848 562//848 563//848
f 556//849 563//849 557//849
f 557//850 563//850 564//850
f 557//851 564//851 558//851
f 558//852 564//852 565//852
f 558//853 565//853 559//853
f 559//854 565//854 566//854
f 559//855 566//855 560//855
f 560//856 566//856 567//856
f 568//857 575//857 569//857
f 569//858 575//858 576//858
f 569//859 576//859 570//859
f 570//860 576//860 577//860
f 570//861 577//861 571//861
f 571//862 577//862 578//862
f 571//863 578//863 572//863
f 572//864 578//864 579//864
f 572//865 579//865 573//865
f 573//866 579//866 580//866
f 573//867 580//867 574//867
f 574//868 580//868 581//868
f 575//869 582//869 576//869
f 576//870 582//870 583//870
f 576//871 583//871 577//871
f 577//872 583//872 584//872
f 577//873 584//873 578//873
f 578//874 584//874 585//874
f 578//875 585//875 579//875
f 579//876 585//876 586//876
f 579//877 586//877 580//877
f 580//878 586//878 587//878
f 580//879 587//879 581//879
f 581//880 587//880 588//880
f 582//881 589//881 583//881
f 583//882 589//882 590//882
f 583//883 590//883 584//883
f 584//884 590//884 591//884
f 584//885 591//885 585//885
f 585//886 591//886 592//886
f 585//887 592//887 586//887
f 586//888 592//888 593//888
f 586//889 593//889 587//889
f 587//890 593//890 594//890
f 587//891 594//891 588//891
f 588//892 594//892 595//892
f 589//893 596//893 590//893
f 590//894 596//894 597//894
f 590//895 597//895 591//895
f 591//896 597//896 598//896
f 591//897 598//897 592//897
f 592//898 598//898 599//898
f 592//899 599//899 593//899
f 593//900 599//900 600//900
f 593//901 600//901 594//901
f 594//902 600//902 601//902
f 594//903 601//903 595//903
f 595//904 601//904 602//904
f 596//905 603//905 597//905
f 597//906 603//906 604//906
f 597//907 604//907 598//907
f 598//908 604//908 605//908
f 598//909 605//909 599//909
f 599//910 605//910 606//910
f 599//911 606//911 600//911
f 600//912 606//912 607//912
f 600//913 607//913 601//913
f 601//914 607//914 608//914
f 601//915 608//915 602//915
f 602//916 608//916 609//916
f 603//917 610//917 604//917
f 604//918 610//918 611//918
f 604//919 611//919 605//919
f 605//920 611//920 612//920
f 605//921 612//921 606//921
f 606//922 612//922 613//922
f 606//923 613//923 607//923
f 607//924 613//924 614//924
f 607//925 614//925 608//925
f 608//926 614//926 615//926
f 608//927 615//927 609//927
f 609//928 615//928 616//928
f 610//929 617//929 611//929
f 611//930 617//930 618//930
f 611//931 618//931 612//931
f 612//932 618//932 619//932
f 612//933 619//933 613//933
f 613//934 619//934 620//934
f 613//935 620//935 614//935
f 614//936 620//936 621//936
f 614//937 621//937 615//937
f 615//938 621//938 622//938
f 615//939 622//939 616//939
f 616//940 622//940 623//940
f 617//941 624//941 618//941
f 618//942 624//942 625//942
f 618//943 625//943 619//943
f 619//944 625//944 626//944
f 619//945 626//945 620//945
f 620//946 626//946 627//946
f 620//947 627//947 621//947
f 621//948 627//948 628//948
f 621//949 628//949 622//949
f 622//950 628//950 629//950
f 622//951 629//951 623//951
f 623//952 629//952 630//952
f 624//953 631//953 625//953
f 625//954 631//954 632//954
f 625//955 632//955 626//955
f 626//956 632//956 633//956
f 626//957 633//957 627//957
f 627//958 633//958 634//958
f 627//959 634//959 628//959
f 628//960 634//960 635//960
f 628//961 635//961 629//961
f 629//962 635//962 636//962
f 629//963 636//963 630//963
f 630//964 636//964 637//964
f 631//965 638//965 632//965
f 632//966 638//966 639//966
f 632//967 639//967 633//967
f 633//968 639//968 640//968
f 633//969 640//969 634//969
f 634//970 640//970 641//970
f 634//971 641//971 635//971
f 635//972 641//972 642//972
f 635//973 642//973 636//973
f 636//974 642//974 643//974
f 636//975 643//975 637//975
f 637//976 643//976 644//976
f 645//977 652//977 646//977
f 646//978 652//978 653//978
f 646//979 653//979 647//979
f 647//980 653//980 654//980
f 647//981 654//981 648//981
f 648//982 654//982 655//982
f 648//983 655//983 649//983
f 649//984 655//984 656//984
f 649//985 656//985 650//985
f 650//986 656//986 657//986
f 650//987 657//987 651//987
f 651//988 657//988 658//988
f 652//989 659//989 653//989
f 653//990 659//990 660//990
f 653//991 660//991 654//991
f 654//992 660//992 661//992
f 654//993 661//993 655//993
f 655//994 661//994 662//994
f 655//995 662//995 656//995
f 656//996 662//996 663//996
f 656//997 663//997 657//997
f 657//998 663//998 664//998
f 657//999 664//999 658//999
f 658//1000 664//1000 665//1000
f 659//1001 666//1001 660//1001
f 660//1002 666//1002 667//1002
f 660//1003 667//1003 661//1003
f 661//1004 667//1004 668//1004
f 661//1005 668//1005 662//1005
f 662//1006 668//1006 669//1006
f 662//1007 669//1007 663//1007
f 663//1008 669//1008 670//1008
f 663//1009 670//1009 664//1009
f 664//1010 670//1010 671//1010
f 664//1011 671//1011 665//1011
f 665//1012 671//1012 672//1012
f 666//1013 673//1013 667//1013
f 667//1014 673//1014 674//1014
f 667//1015 674//1015 668//1015
f 668//1016 674//1016 675//1016
f 668//1017 675//1017 669//1017
f 669//1018 675//1018 676//1018
f 669//1019 676//1019 670//1019
f 670//1020 676//1020 677//1020
f 670//1021 677//1021 671//1021
f 671//1022 677//1022 678//1022
f 671//1023 678//1023 672//1023
f 672//1024 678//1024 679//1024
f 673//1025 680//1025 674//1025
f 674//1026 680//1026 681//1026
f 674//1027 681//1027 675//1027
f 675//1028 681//1028 682//1028
f 675//1029 682//1029 676//1029
f 676//1030 682//1030 683//1030
f 676//1031 683//1031 677//1031
f 677//1032 683//1032 684//1032
f 677//1033 684//1033 678//1033
f 678//1034 684//1034 685//1034
f 678//1035 685//1035 679//1035
f 679//1036 685//1036 686//1036
f 680//1037 687//1037 681//1037
f 681//1038 687//1038 688//1038
f 681//1039 688//1039 682//1039
f 682//1040 688//1040 689//1040
f 682//1041 689//1041 683//1041
f 683//1042 689//1042 690//1042
f 683//1043 690//1043 684//1043
f 684//1044 690//1044 691//1044
f 684//1045 691//1045 685//1045
f 685//1046 691//1046 692//1046
f 685//1047 692//1047 686//1047
f 686//1048 692//1048 693//1048
f 687//1049 694//1049 688//1049
f 688//1050 694//1050 695//1050
f 688//1051 695//1051 689//1051
f 689//1052 695//1052 696//1052
f 689//1053 696//1053 690//1053
f 690//1054 696//1054 697//1054
f 690//1055 697//1055 691//1055
f 691//1056 697//1056 698//1056
f 691//1057 698//1057 692//1057
f 692//1058 698//1058 699//1058
f 692//1059 699//1059 693//1059
f 693//1060 699//1060 700//1060
f 694//1061 701//1061 695//1061
f 695//1062 701//1062 702//1062
f 695//1063 702//1063 696//1063
f 696//1064 702//1064 703//1064
f 696//1065 703//1065 697//1065
f 697//1066 703//1066 704//1066
f 697//1067 704//1067 698//1067
f 698//1068 704//1068 705//1068
f 698//1069 705//1069 699//1069
f 699//1070 705//1070 706//1070
f 699//1071 706//1071 700//1071
f 700//1072 706//1072 707//1072
f 701//1073 708//1073 702//1073
f 702//1074 708//1074 709//1074
f 702//1075 709//1075 703//1075
f 703//1076 709//1076 710//1076
f 703//1077 710//1077 704//1077
f 704//1078 710//1078 711//1078
f 704//1079 711//1079 705//1079
f 705//1080 711//1080 712//1080
f 705//1081 712//1081 706//1081
f 706//1082 712//1082 713//1082
f 706//1083 713//1083 707//1083
f 707//1084 713//1084 714//1084
f 708//1085 715//1085 709//1085
f 709//1086 715//1086 716//1086
f 709//1087 716//1087 710//1087
f 710//1088 716//1088 717//1088
f 710//1089 717//1089 711//1089
f 711//1090 717//1090 718//1090
f 711//1091 718//1091 712//1091
f 712//1092 718//1092 719//1092
f 712//1093 719//1093 713//1093
f 713//1094 719//1094 720//1094
f 713//1095 720//1095 714//1095
f 714//1096 720//1096 721//1096